<svg xmlns="http://www.w3.org/2000/svg" width="11.554" height="11.554" viewBox="0 0 11.554 11.554">
  <path id="Path_3" data-name="Path 3" d="M5.777,1.027a17.714,17.714,0,0,1,2.311.064,2.977,2.977,0,0,1,1.091.193A2.254,2.254,0,0,1,10.27,2.375a2.977,2.977,0,0,1,.193,1.091c0,.578.064.77.064,2.311a17.714,17.714,0,0,1-.064,2.311,2.977,2.977,0,0,1-.193,1.091A2.254,2.254,0,0,1,9.179,10.27a2.977,2.977,0,0,1-1.091.193c-.578,0-.77.064-2.311.064a17.714,17.714,0,0,1-2.311-.064,2.977,2.977,0,0,1-1.091-.193A2.254,2.254,0,0,1,1.284,9.179a2.977,2.977,0,0,1-.193-1.091c0-.578-.064-.77-.064-2.311a17.714,17.714,0,0,1,.064-2.311,2.977,2.977,0,0,1,.193-1.091,2.305,2.305,0,0,1,.449-.642,1.085,1.085,0,0,1,.642-.449,2.977,2.977,0,0,1,1.091-.193,17.714,17.714,0,0,1,2.311-.064M5.777,0A18.966,18.966,0,0,0,3.4.064,3.963,3.963,0,0,0,1.99.321,2.513,2.513,0,0,0,.963.963,2.513,2.513,0,0,0,.321,1.99,2.925,2.925,0,0,0,.064,3.4,18.966,18.966,0,0,0,0,5.777,18.966,18.966,0,0,0,.064,8.152,3.963,3.963,0,0,0,.321,9.564a2.513,2.513,0,0,0,.642,1.027,2.513,2.513,0,0,0,1.027.642A3.963,3.963,0,0,0,3.4,11.49a18.966,18.966,0,0,0,2.375.064,18.966,18.966,0,0,0,2.375-.064,3.963,3.963,0,0,0,1.412-.257,2.693,2.693,0,0,0,1.669-1.669,3.963,3.963,0,0,0,.257-1.412c0-.642.064-.834.064-2.375A18.966,18.966,0,0,0,11.49,3.4a3.963,3.963,0,0,0-.257-1.412A2.513,2.513,0,0,0,10.591.963,2.513,2.513,0,0,0,9.564.321,3.963,3.963,0,0,0,8.152.064,18.966,18.966,0,0,0,5.777,0m0,2.824A2.905,2.905,0,0,0,2.824,5.777,2.953,2.953,0,1,0,5.777,2.824m0,4.878A1.891,1.891,0,0,1,3.851,5.777,1.891,1.891,0,0,1,5.777,3.851,1.891,1.891,0,0,1,7.7,5.777,1.891,1.891,0,0,1,5.777,7.7M8.858,1.99a.706.706,0,1,0,.706.706.712.712,0,0,0-.706-.706" transform="translate(0 0)" fill="#8e8e8e" fill-rule="evenodd"/>
</svg>
