<svg id="round-location_on-24px" xmlns="http://www.w3.org/2000/svg" width="18" height="18" viewBox="0 0 18 18">
  <path id="Path_950" data-name="Path 950" d="M0,0H18V18H0Z" fill="none"/>
  <path id="Path_951" data-name="Path 951" d="M9.5,2A4.677,4.677,0,0,0,5,6.843c0,2.885,2.841,6.863,4.011,8.378a.61.61,0,0,0,.984,0C11.159,13.706,14,9.728,14,6.843A4.677,4.677,0,0,0,9.5,2Zm0,6.572a1.672,1.672,0,0,1-1.607-1.73A1.672,1.672,0,0,1,9.5,5.113a1.672,1.672,0,0,1,1.607,1.73A1.672,1.672,0,0,1,9.5,8.572Z" transform="translate(-0.5)" fill="#fff"/>
</svg>
