<svg id="round-phone-24px" xmlns="http://www.w3.org/2000/svg" width="18" height="18" viewBox="0 0 18 18">
  <path id="Path_952" data-name="Path 952" d="M0,0H18V18H0Z" fill="none"/>
  <path id="Path_953" data-name="Path 953" d="M13.818,11.168l-1.692-.193a1.326,1.326,0,0,0-1.092.38L9.809,12.58A10.02,10.02,0,0,1,5.42,8.191L6.652,6.959a1.326,1.326,0,0,0,.38-1.092L6.838,4.189A1.333,1.333,0,0,0,5.513,3.01H4.361A1.322,1.322,0,0,0,3.029,4.389,11.316,11.316,0,0,0,13.611,14.971a1.322,1.322,0,0,0,1.379-1.332V12.487A1.32,1.32,0,0,0,13.818,11.168Z" transform="translate(0 0)" fill="#fff"/>
</svg>
