<svg xmlns="http://www.w3.org/2000/svg" width="11.554" height="9.372" viewBox="0 0 11.554 9.372">
  <path id="Path_2" data-name="Path 2" d="M41.659,11.372a6.68,6.68,0,0,0,6.74-6.74V4.311a5.218,5.218,0,0,0,1.155-1.22,5.329,5.329,0,0,1-1.348.385,2.5,2.5,0,0,0,1.027-1.284,5.888,5.888,0,0,1-1.476.578A2.292,2.292,0,0,0,46.024,2a2.412,2.412,0,0,0-2.375,2.375,1.251,1.251,0,0,0,.064.514,6.637,6.637,0,0,1-4.878-2.5,2.458,2.458,0,0,0-.321,1.22,2.55,2.55,0,0,0,1.027,1.99,2.164,2.164,0,0,1-1.091-.321h0a2.346,2.346,0,0,0,1.926,2.311,1.979,1.979,0,0,1-.642.064,1.092,1.092,0,0,1-.449-.064A2.432,2.432,0,0,0,41.53,9.253a4.846,4.846,0,0,1-2.953,1.027A1.777,1.777,0,0,1,38,10.216a6.059,6.059,0,0,0,3.659,1.155" transform="translate(-38 -2)" fill="#8e8e8e" fill-rule="evenodd"/>
</svg>
