<svg xmlns="http://www.w3.org/2000/svg" xmlns:xlink="http://www.w3.org/1999/xlink" width="2526.058" height="1413.817" viewBox="0 0 2526.058 1413.817">
  <defs>
    <filter id="Path_827" x="0" y="0" width="1451" height="716.841" filterUnits="userSpaceOnUse">
      <feOffset input="SourceAlpha"/>
      <feGaussianBlur stdDeviation="14" result="blur"/>
      <feFlood flood-opacity="0.161"/>
      <feComposite operator="in" in2="blur"/>
      <feComposite in="SourceGraphic"/>
    </filter>
    <clipPath id="clip-path">
      <rect width="1740.058" height="1349.817" fill="none"/>
    </clipPath>
    <linearGradient id="linear-gradient" x1="0.874" y1="0.974" x2="0.217" y2="0.221" gradientUnits="objectBoundingBox">
      <stop offset="0" stop-color="#2484c6"/>
      <stop offset="1" stop-color="#2484c6" stop-opacity="0"/>
    </linearGradient>
    <linearGradient id="linear-gradient-2" x1="0.097" y1="0.999" x2="0.845" y2="0.158" xlink:href="#linear-gradient"/>
    <linearGradient id="linear-gradient-3" x1="0" y1="0.5" x2="1" y2="0.5" xlink:href="#linear-gradient"/>
    <linearGradient id="linear-gradient-4" y1="0.5" x2="1" y2="0.5" gradientUnits="objectBoundingBox">
      <stop offset="0" stop-color="#f7941e"/>
      <stop offset="1" stop-color="#f7941e" stop-opacity="0"/>
    </linearGradient>
  </defs>
  <g id="Group_715" data-name="Group 715" transform="translate(43 -410)">
    <g transform="matrix(1, 0, 0, 1, -43, 410)" filter="url(#Path_827)">
      <path id="Path_827-2" data-name="Path 827" d="M0,0H1367V567.486s-181.087-26.831-407.873-10.933S699.64,620.308,459.858,631.081,0,599.645,0,599.645Z" transform="translate(42 42)" fill="#fff"/>
    </g>
    <g id="Group_649" data-name="Group 649" transform="translate(-11 -459)">
      <g id="Group_209" data-name="Group 209">
        <text id="Avence_is_een_team_van_developers_en_designers_die_nauw_samenwerken._Wij_focussen_op_het_ontwikkelen_van_maatwerk_websites_en_webapplicaties._Doordat_wij_op_de_hoogte_zijn_van_de_laatste_trends_kunt_u_rekenen_op_een_goedwerkende_website_die_geschikt_is_vo" data-name="Avence is een team van developers en designers die nauw samenwerken. Wij focussen op het ontwikkelen van maatwerk websites en webapplicaties. Doordat wij op de hoogte zijn van de laatste trends, kunt u rekenen op een goedwerkende website die geschikt is vo" transform="translate(132 1100)" fill="#707070" font-size="16" font-family="OpenSans-Light, Open Sans" font-weight="300"><tspan x="0" y="17">Avence is een team van developers en designers die nauw samenwerken. Wij </tspan><tspan x="0" y="38">focussen op het ontwikkelen van maatwerk websites en webapplicaties. </tspan><tspan x="0" y="59">Doordat wij op de hoogte zijn van de laatste trends, kunt u rekenen op een </tspan><tspan x="0" y="80">goedwerkende website die geschikt is voor elk scherm. Door uw wensen te </tspan><tspan x="0" y="101">combineren met onze kwaliteiten, kunnen wij uw project succesvol realiseren. </tspan><tspan x="0" y="122">Door middel van korte communicatielijnen tussen klant en ontwikkelaar, </tspan><tspan x="0" y="143">kunnen wij u snel en efficiënt in uw wensen voorzien.</tspan></text>
        <text id="Aangenaam_wij_zijn_Avence." data-name="Aangenaam,
wij zijn Avence." transform="translate(131 1028)" fill="#535353" font-size="32" font-family="OpenSans-Bold, Open Sans" font-weight="700"><tspan x="0" y="0">Aangenaam,</tspan><tspan x="0" y="43">wij zijn Avence.</tspan></text>
        <g id="Group_207" data-name="Group 207" transform="translate(-995 1276)">
          <g id="Rectangle_52" data-name="Rectangle 52" transform="translate(1125 23)" fill="#2699fb" stroke="#68b7fa" stroke-width="1">
            <rect width="145" height="33" rx="5" stroke="none"/>
            <rect x="0.5" y="0.5" width="144" height="32" rx="4.5" fill="none"/>
          </g>
          <text id="Contact" transform="translate(1222.5 44)" fill="#fff" font-size="12" font-family="OpenSans-Regular, Open Sans"><tspan x="-43.043" y="0">Contact</tspan></text>
        </g>
      </g>
    </g>
    <g id="Repeat_Grid_1" data-name="Repeat Grid 1" transform="translate(743 474)" clip-path="url(#clip-path)">
      <g transform="translate(-743 -474)">
        <g id="Group_714" data-name="Group 714" transform="translate(423.09 358)" opacity="0.827">
          <g id="Group_651" data-name="Group 651" transform="translate(827.275 1216.731)">
            <path id="Path_684" data-name="Path 684" d="M668.735,549.215l-20.683-70.1s31.439-133.276-34.745-139.267C550.444,334.155,567.3,454.2,569.281,467.034c-2.154-13.436-24.967-146.653-79.655-126.377-61.205,22.7,37.108,146.181,37.108,146.181-22.053-28.526-78.876-70.74-98.879-26.068-8.721,19.477,9.972,37.609,33.826,51.869-15.263-3.6-30.948-5.336-36.005.849-14.1,17.234,14.737,37.316,70.165,38.418,20.083.4,30.253-3.752,35.1-9.2.67.214,1.092.343,1.092.343Z" transform="translate(-422.128 -338.562)" fill="#78e2ff"/>
            <path id="Path_685" data-name="Path 685" d="M668.735,549.215l-20.683-70.1s31.439-133.276-34.745-139.267C550.444,334.155,567.3,454.2,569.281,467.034c-2.154-13.436-24.967-146.653-79.655-126.377-61.205,22.7,37.108,146.181,37.108,146.181-22.053-28.526-78.876-70.74-98.879-26.068-8.721,19.477,9.972,37.609,33.826,51.869-15.263-3.6-30.948-5.336-36.005.849-14.1,17.234,14.737,37.316,70.165,38.418,20.083.4,30.253-3.752,35.1-9.2.67.214,1.092.343,1.092.343Z" transform="translate(-422.128 -338.562)" fill="url(#linear-gradient)"/>
            <path id="Path_686" data-name="Path 686" d="M495.094,458.685s-68.844-26.624-52.246-49.576c10.468-14.474,30.694,10.116,30.694,10.116s-26.609-34.819-3.589-45.436c23.9-11.019,36.72,29.116,36.72,29.116s-8.889-35.172,9.307-40.135,19.581,35.172,19.581,35.172,23.5-31.643,37.5-6.408c12.7,22.892-25.85,68.532-25.85,68.532" transform="translate(-350.24 -244.299)" fill="#00a4d6" opacity="0.2"/>
            <path id="Path_687" data-name="Path 687" d="M756.58,523.266c1.186-12.657-27.235-12.682-49.045-10.379,28.987-16.469,54.267-37.8,44.7-59.151-20-44.672-85.09,4.576-107.143,33.1,0,0,98.313-123.483,37.107-146.181-54.688-20.276-77.5,112.94-79.654,126.377,1.98-12.831,18.832-132.879-44.032-127.186-66.179,5.991-55.423,209.367-55.423,209.367S752.445,567.471,756.58,523.266Z" transform="translate(-103.791 -338.562)" fill="#78e2ff"/>
            <path id="Path_688" data-name="Path 688" d="M756.58,523.266c1.186-12.657-27.235-12.682-49.045-10.379,28.987-16.469,54.267-37.8,44.7-59.151-20-44.672-85.09,4.576-107.143,33.1,0,0,98.313-123.483,37.107-146.181-54.688-20.276-77.5,112.94-79.654,126.377,1.98-12.831,18.832-132.879-44.032-127.186-66.179,5.991-55.423,209.367-55.423,209.367S752.445,567.471,756.58,523.266Z" transform="translate(-103.791 -338.562)" fill="url(#linear-gradient-2)"/>
            <path id="Path_689" data-name="Path 689" d="M587.18,459.623S656.02,433,639.422,410.047c-10.468-14.479-30.695,10.116-30.695,10.116s26.615-34.824,3.594-45.436c-23.9-11.019-36.725,29.116-36.725,29.116s8.895-35.172-9.306-40.135-19.581,35.172-19.581,35.172-23.5-31.642-37.5-6.413c-12.7,22.9,25.855,68.532,25.855,68.532" transform="translate(-87.16 -240.581)" fill="#00a4d6" opacity="0.2"/>
          </g>
          <g id="Group_656" data-name="Group 656" transform="translate(319.91 117)">
            <g id="Group_653" data-name="Group 653" transform="translate(69.256 735.036)">
              <g id="Group_652" data-name="Group 652" opacity="0.2">
                <path id="Path_690" data-name="Path 690" d="M474.718,292.654a80.234,80.234,0,1,0,18.043,69.539,80.189,80.189,0,0,0-18.043-69.539Zm4.7,66.7a66.56,66.56,0,1,1,1.474-13.943A66.914,66.914,0,0,1,479.414,359.354Z" transform="translate(-333.863 -265.087)" fill="#18bdf7"/>
              </g>
              <path id="Path_691" data-name="Path 691" d="M404.842,286.918a80.446,80.446,0,0,1-42.711,55.075l-6.085-12.17a66.913,66.913,0,0,0,35.45-45.744Z" transform="translate(-245.944 -189.811)" fill="#18bdf7" opacity="0.2"/>
              <path id="Path_692" data-name="Path 692" d="M456.3,292.654,446.01,301.6a66.585,66.585,0,0,0-97.757-2.919l-9.743-9.55a80.216,80.216,0,0,1,117.79,3.519Z" transform="translate(-315.444 -265.087)" fill="#4a63fe" opacity="0.26"/>
            </g>
            <g id="Group_655" data-name="Group 655" transform="translate(586.775 62.903)" opacity="0.8">
              <g id="Group_654" data-name="Group 654" opacity="0.2">
                <path id="Path_693" data-name="Path 693" d="M531.844,148.013a53.387,53.387,0,1,0,12,46.265,53.325,53.325,0,0,0-12-46.265Zm3.122,44.379a44.268,44.268,0,1,1,.983-9.282A44.51,44.51,0,0,1,534.966,192.392Z" transform="translate(-438.127 -129.673)" fill="#18bdf7"/>
              </g>
              <path id="Path_694" data-name="Path 694" d="M485.352,144.2a53.523,53.523,0,0,1-28.416,36.646l-4.05-8.1a44.51,44.51,0,0,0,23.587-30.431Z" transform="translate(-379.633 -79.59)" fill="#18bdf7" opacity="0.2"/>
              <path id="Path_695" data-name="Path 695" d="M519.592,148.013l-6.845,5.956a44.312,44.312,0,0,0-65.047-1.946l-6.482-6.353a53.38,53.38,0,0,1,78.374,2.343Z" transform="translate(-425.876 -129.673)" fill="#4a63fe" opacity="0.26"/>
            </g>
            <path id="Path_696" data-name="Path 696" d="M404.509,346.81l8.14-6.065a50.426,50.426,0,0,0-15.536-15.531l-6.06,8.135a40.021,40.021,0,0,0-11.332-4.7l1.474-10.056a49.258,49.258,0,0,0-21.974,0l1.469,10.056a40.02,40.02,0,0,0-11.332,4.7l-6.06-8.135a50.477,50.477,0,0,0-15.536,15.531l8.14,6.065a39.65,39.65,0,0,0-4.7,11.327l-10.056-1.469a49.258,49.258,0,0,0,0,21.974l10.056-1.469a39.71,39.71,0,0,0,4.7,11.327l-8.14,6.06A50.439,50.439,0,0,0,343.3,410.095l6.06-8.135a40.018,40.018,0,0,0,11.332,4.7l-1.469,10.051a49.261,49.261,0,0,0,21.974,0l-1.474-10.051a40.019,40.019,0,0,0,11.332-4.7l6.06,8.135a50.388,50.388,0,0,0,15.536-15.536l-8.14-6.06a39.862,39.862,0,0,0,4.7-11.327l10.051,1.469a49.261,49.261,0,0,0,0-21.974l-10.051,1.469A39.8,39.8,0,0,0,404.509,346.81Zm-34.3,47.541a26.7,26.7,0,1,1,26.694-26.7A26.7,26.7,0,0,1,370.206,394.351Z" transform="translate(-319.91 677.119)" fill="#00a4d6" opacity="0.2"/>
            <path id="Path_697" data-name="Path 697" d="M752.424,204.663l12.2-9.088a75.615,75.615,0,0,0-23.289-23.289l-9.088,12.2a59.682,59.682,0,0,0-16.985-7.043l2.2-15.074a73.813,73.813,0,0,0-32.943,0l2.2,15.074a59.617,59.617,0,0,0-16.985,7.043l-9.088-12.2a75.628,75.628,0,0,0-23.294,23.289l12.205,9.088a59.609,59.609,0,0,0-7.043,16.985l-15.074-2.2a73.816,73.816,0,0,0,0,32.943l15.074-2.2a59.669,59.669,0,0,0,7.043,16.985l-12.205,9.088a75.681,75.681,0,0,0,23.294,23.289l9.088-12.2a59.756,59.756,0,0,0,16.985,7.043l-2.2,15.074a74,74,0,0,0,32.943,0l-2.2-15.074a59.821,59.821,0,0,0,16.985-7.043l9.088,12.2a75.668,75.668,0,0,0,23.289-23.289l-12.2-9.088a59.816,59.816,0,0,0,7.043-16.985l15.074,2.2a74,74,0,0,0,0-32.943l-15.074,2.2A59.756,59.756,0,0,0,752.424,204.663Zm-51.432,71.276a40.023,40.023,0,1,1,40.026-40.026A40.022,40.022,0,0,1,700.992,275.939Z" transform="translate(891.649 55.442)" fill="#00a4d6" opacity="0.15"/>
            <path id="Path_698" data-name="Path 698" d="M452.461,137.683A20.681,20.681,0,1,1,431.778,117,20.678,20.678,0,0,1,452.461,137.683Z" transform="translate(41.525 -117)" fill="none" stroke="#00a4d6" stroke-miterlimit="10" stroke-width="2" opacity="0.1"/>
            <path id="Path_699" data-name="Path 699" d="M613.8,152.8A20.681,20.681,0,1,1,593.12,132.12,20.681,20.681,0,0,1,613.8,152.8Z" transform="translate(680.991 -57.071)" fill="none" stroke="#00a4d6" stroke-miterlimit="10" stroke-width="0.5" opacity="0.5"/>
            <circle id="Ellipse_276" data-name="Ellipse 276" cx="32.339" cy="32.339" r="32.339" transform="translate(713.698 215.951)" fill="none" stroke="#00a4d6" stroke-miterlimit="10" stroke-width="3.127" opacity="0.1"/>
            <path id="Path_700" data-name="Path 700" d="M714.135,290.083a32.34,32.34,0,1,1-32.343-32.338A32.341,32.341,0,0,1,714.135,290.083Z" transform="translate(986.255 440.848)" fill="none" stroke="#00a4d6" stroke-miterlimit="10" stroke-width="3.127" opacity="0.1"/>
          </g>
          <g id="Group_665" data-name="Group 665" transform="translate(473.42 429.901)">
            <g id="Group_657" data-name="Group 657">
              <path id="Path_701" data-name="Path 701" d="M1698.852,213.494V989.742A33.469,33.469,0,0,1,1665.4,1023.2H384.8a33.437,33.437,0,0,1-33.454-33.454V213.494A33.438,33.438,0,0,1,384.8,180.04H1665.4A33.47,33.47,0,0,1,1698.852,213.494Z" transform="translate(-348.806 -180.04)" fill="#4a63fe"/>
              <path id="Path_702" data-name="Path 702" d="M733.651,534.493H459.466L489.247,417.4,496,390.848l13.1-51.422H684.016l13.1,51.422,6.75,26.555Z" transform="translate(79.714 451.693)" fill="#4a63fe"/>
              <path id="Path_703" data-name="Path 703" d="M680.089,376.341H465.465l6.75-26.555H673.339Z" transform="translate(103.495 492.756)" fill="#425de2"/>
              <path id="Path_704" data-name="Path 704" d="M939.712,418.875H455.077a21.057,21.057,0,0,1-21.055-21.055h0a21.058,21.058,0,0,1,21.055-21.06H939.712a21.059,21.059,0,0,1,21.056,21.06h0A21.058,21.058,0,0,1,939.712,418.875Z" transform="translate(-21.132 599.663)" fill="#425de2"/>
              <rect id="Rectangle_56" data-name="Rectangle 56" width="1350.016" height="589.007" transform="translate(0 119.834)" fill="#60f4df" opacity="0.2"/>
              <path id="Path_705" data-name="Path 705" d="M511.879,391.817h0a31.161,31.161,0,0,1-31.067-31.067h0a31.158,31.158,0,0,1,31.067-31.067h0a31.158,31.158,0,0,1,31.067,31.067h0A31.161,31.161,0,0,1,511.879,391.817Z" transform="translate(164.322 413.076)" fill="#3b5bd1"/>
            </g>
            <g id="Group_664" data-name="Group 664" transform="translate(34.619 135.552)">
              <g id="Group_658" data-name="Group 658" transform="translate(432.349)">
                <rect id="Rectangle_57" data-name="Rectangle 57" width="852.921" height="364.218" rx="3.282" fill="#fff" opacity="0.2"/>
                <path id="Path_706" data-name="Path 706" d="M1259.193,378.9V517.332a11.2,11.2,0,0,1-11.218,11.168H460.113a11.2,11.2,0,0,1-11.218-11.168V213.266c72.766,0,109,27.2,130.243,62.938q2.085,3.425,3.872,7c35.936,68,25.115,161.216,104.135,161.216a32.529,32.529,0,0,0,8.339-1.042,23.246,23.246,0,0,0,4.864-1.588c53.16-22.386,44.87-181.268,139.426-180.127,20.2.248,35.291,7.991,47.2,20.35,1.142,1.241,2.283,2.482,3.375,3.822,42.339,49.685,42.934,160.422,107.957,180.524,23.428,7.247,44.126-2.581,64.576-18.812,1.291-1.042,2.631-2.085,3.921-3.226,43.232-35.886,86.217-97.236,152.927-82.2,1.936.447,3.871.943,5.857,1.489A139.461,139.461,0,0,1,1259.193,378.9Z" transform="translate(-429.15 -183.9)" fill="#fff" opacity="0.39"/>
                <path id="Path_707" data-name="Path 707" d="M1259.242,309.28c-14.146.2-24.967,4.964-33.653,12.657-16.082,14.245-24.719,38.567-33.156,62.342-12.657,35.589-25.711,72.319-63.881,72.319-2.035,0-4.17-.1-6.354-.3-24.867-2.432-43.183-22.683-59.314-50.43-10.026-17.174-19.209-37.276-28.54-57.875-26.406-57.925-53.755-117.834-104.086-119.224-.6,0-1.141-.05-1.687-.05-15.238,0-27.7,5.807-38.219,15.437-21.294,19.407-34.844,54.4-48.1,88.649C822.649,383.485,802.4,435.9,756.684,436.942c-32.859.695-47.8-11.714-61.2-35.241-5.162-9.133-10.125-19.953-15.784-32.313-10.324-22.634-23.229-50.777-44.573-83.536-14.345-21.939-32.561-35.886-52.117-44.324-52.713-22.981-114.757-6.155-134.115.149v-5.212c20.748-6.552,78.722-21.393,130.243-1.936,22.485,8.488,43.729,23.527,60.108,48.643,21.591,33.008,34.546,61.349,44.97,84.132,5.857,12.806,10.87,23.775,16.131,32.809,12.607,21.79,26.456,32.561,56.237,31.866,42.389-.993,61.151-49.536,81.055-100.958,13.5-34.894,27.25-70.532,49.338-90.684,11.714-10.672,25.76-17.025,43.381-16.529,53.507,1.44,81.452,62.789,108.5,122.153,9.232,20.152,18.166,39.857,27.945,56.684,15.486,26.9,32.859,46.409,55.889,48.692,39.311,3.872,51.819-31.37,65.072-68.745,8.239-23.279,16.677-47,31.965-62.144,9.729-9.728,22.286-15.883,39.41-16.131Z" transform="translate(-429.15 -142.225)" fill="#fff" opacity="0.8"/>
              </g>
              <g id="Group_659" data-name="Group 659" transform="translate(834.288 379.622)">
                <rect id="Rectangle_58" data-name="Rectangle 58" width="450.981" height="79.815" rx="2.791" fill="#9cd7ff" opacity="0.5"/>
                <rect id="Rectangle_59" data-name="Rectangle 59" width="450.981" height="79.815" rx="2.791" transform="translate(0 96.46)" fill="#fff" opacity="0.2"/>
              </g>
              <g id="Group_661" data-name="Group 661">
                <rect id="Rectangle_60" data-name="Rectangle 60" width="418.592" height="176.275" rx="3.282" fill="#9cd7ff" opacity="0.2"/>
                <g id="Group_660" data-name="Group 660" transform="translate(16.545 16.855)" opacity="0.3">
                  <rect id="Rectangle_61" data-name="Rectangle 61" width="28.954" height="117.057" rx="0.825" transform="translate(318.218 27.403)" fill="#fff"/>
                  <rect id="Rectangle_62" data-name="Rectangle 62" width="28.954" height="144.46" rx="0.917" transform="translate(357.995)" fill="#fff"/>
                  <rect id="Rectangle_63" data-name="Rectangle 63" width="28.954" height="144.46" rx="0.917" fill="#fff"/>
                  <rect id="Rectangle_64" data-name="Rectangle 64" width="28.954" height="110.232" rx="0.801" transform="translate(39.777 34.228)" fill="#fff"/>
                  <rect id="Rectangle_65" data-name="Rectangle 65" width="28.954" height="144.46" rx="0.917" transform="translate(79.555)" fill="#fff"/>
                  <rect id="Rectangle_66" data-name="Rectangle 66" width="28.954" height="79.758" rx="0.681" transform="translate(119.332 64.702)" fill="#fff"/>
                  <rect id="Rectangle_67" data-name="Rectangle 67" width="28.954" height="144.46" rx="0.917" transform="translate(159.109)" fill="#fff"/>
                  <rect id="Rectangle_68" data-name="Rectangle 68" width="28.954" height="117.057" rx="0.825" transform="translate(198.887 27.403)" fill="#fff"/>
                  <rect id="Rectangle_69" data-name="Rectangle 69" width="28.954" height="144.46" rx="0.917" transform="translate(238.664)" fill="#fff"/>
                  <rect id="Rectangle_70" data-name="Rectangle 70" width="28.954" height="110.232" rx="0.801" transform="translate(278.441 34.228)" fill="#fff"/>
                </g>
              </g>
              <g id="Group_662" data-name="Group 662" transform="translate(0 189.811)">
                <rect id="Rectangle_71" data-name="Rectangle 71" width="418.592" height="176.275" rx="3.282" fill="#fff" opacity="0.2"/>
                <rect id="Rectangle_72" data-name="Rectangle 72" width="418.592" height="176.275" rx="3.282" transform="translate(0 189.811)" fill="#fff" opacity="0.2"/>
                <path id="Path_708" data-name="Path 708" d="M744.078,250.2a7.859,7.859,0,0,0-7.857,7.857,7.777,7.777,0,0,0,1.082,3.916l-63.98,72.249a7.873,7.873,0,0,0-2.968-.591,7.765,7.765,0,0,0-3.206.7l-68.859-67.668a7.86,7.86,0,1,0-14.24.1l-88.564,95.588a7.708,7.708,0,0,0-8.3-.412l-48.459-63.106a7.874,7.874,0,1,0-13.188-.73l-54.286,70.378a7.773,7.773,0,0,0-2.745-.521,7.9,7.9,0,1,0,6.606,3.633l54.1-70.135a7.443,7.443,0,0,0,5.475.268l49.084,63.925a7.881,7.881,0,1,0,14.677.8l89.041-96.1a7.569,7.569,0,0,0,7.406-.06L663.505,337.7a7.854,7.854,0,1,0,13.57-.233L741,265.281a7.858,7.858,0,1,0,3.082-15.084Z" transform="translate(-346.584 -227.333)" fill="#fff" opacity="0.5"/>
                <rect id="Rectangle_73" data-name="Rectangle 73" width="354.066" height="14.891" rx="1.429" transform="translate(15.304 203.136)" fill="#fff" opacity="0.3"/>
                <rect id="Rectangle_74" data-name="Rectangle 74" width="318.494" height="14.891" rx="1.355" transform="translate(15.304 229.718)" fill="#fff" opacity="0.3"/>
                <path id="Path_709" data-name="Path 709" d="M743.5,312.119H368.34a7.448,7.448,0,0,1-7.445-7.445h0a7.445,7.445,0,0,1,7.445-7.445H743.5a7.445,7.445,0,0,1,7.445,7.445h0A7.448,7.448,0,0,1,743.5,312.119Z" transform="translate(-345.593 -40.924)" fill="#fff" opacity="0.3"/>
                <rect id="Rectangle_75" data-name="Rectangle 75" width="283.336" height="14.891" rx="1.278" transform="translate(15.304 282.884)" fill="#fff" opacity="0.3"/>
                <rect id="Rectangle_76" data-name="Rectangle 76" width="357.789" height="14.891" rx="1.437" transform="translate(15.304 309.468)" fill="#fff" opacity="0.3"/>
                <path id="Path_710" data-name="Path 710" d="M743.5,328.186H368.34a7.448,7.448,0,0,1-7.445-7.445h0a7.445,7.445,0,0,1,7.445-7.445H743.5a7.445,7.445,0,0,1,7.445,7.445h0A7.448,7.448,0,0,1,743.5,328.186Z" transform="translate(-345.593 22.758)" fill="#fff" opacity="0.3"/>
              </g>
              <g id="Group_663" data-name="Group 663" transform="translate(433.396 379.643)">
                <path id="Path_711" data-name="Path 711" d="M621.383,371.939a88.128,88.128,0,1,1-88.1-88.1,86.179,86.179,0,0,1,20.351,2.383,88.109,88.109,0,0,1,67.454,78.722Q621.383,368.44,621.383,371.939Z" transform="translate(-445.128 -283.836)" fill="#9cd7ff" opacity="0.5"/>
                <path id="Path_712" data-name="Path 712" d="M550.693,363.038l-87.8,7,20.351-85.72A88.108,88.108,0,0,1,550.693,363.038Z" transform="translate(-374.736 -281.933)" fill="#9cd7ff"/>
                <path id="Path_713" data-name="Path 713" d="M660.2,295.931H490.64a5.808,5.808,0,0,1-5.807-5.807h0a5.808,5.808,0,0,1,5.807-5.807H660.2A5.808,5.808,0,0,1,666,290.123h0A5.809,5.809,0,0,1,660.2,295.931Z" transform="translate(-287.756 -281.933)" fill="#9cd7ff" opacity="0.5"/>
                <rect id="Rectangle_77" data-name="Rectangle 77" width="155.731" height="11.611" rx="1.084" transform="translate(197.077 25.472)" fill="#9cd7ff" opacity="0.5"/>
                <rect id="Rectangle_78" data-name="Rectangle 78" width="120.366" height="11.611" rx="0.953" transform="translate(197.077 48.561)" fill="#9cd7ff" opacity="0.5"/>
                <path id="Path_714" data-name="Path 714" d="M660.2,309.886H490.64a5.808,5.808,0,0,1-5.807-5.807h0a5.808,5.808,0,0,1,5.807-5.807H660.2A5.809,5.809,0,0,1,666,304.078h0A5.808,5.808,0,0,1,660.2,309.886Z" transform="translate(-287.756 -226.622)" fill="#9cd7ff" opacity="0.5"/>
                <rect id="Rectangle_79" data-name="Rectangle 79" width="161.315" height="11.611" rx="1.104" transform="translate(197.077 94.739)" fill="#9cd7ff" opacity="0.5"/>
                <path id="Path_715" data-name="Path 715" d="M660.2,319.185H490.64a5.808,5.808,0,0,1-5.807-5.807h0a5.8,5.8,0,0,1,5.807-5.8H660.2a5.8,5.8,0,0,1,5.807,5.8h0A5.808,5.808,0,0,1,660.2,319.185Z" transform="translate(-287.756 -189.746)" fill="#9cd7ff" opacity="0.5"/>
                <path id="Rectangle_80" data-name="Rectangle 80" d="M1.052,0H145.373a1.052,1.052,0,0,1,1.052,1.052V10.56a1.052,1.052,0,0,1-1.052,1.052H1.051A1.051,1.051,0,0,1,0,10.56V1.052A1.052,1.052,0,0,1,1.052,0Z" transform="translate(197.077 140.916)" fill="#9cd7ff" opacity="0.5"/>
                <path id="Path_716" data-name="Path 716" d="M660.2,328.488H490.64a5.8,5.8,0,0,1-5.807-5.8h0a5.808,5.808,0,0,1,5.807-5.807H660.2A5.809,5.809,0,0,1,666,322.685h0A5.8,5.8,0,0,1,660.2,328.488Z" transform="translate(-287.756 -152.873)" fill="#9cd7ff" opacity="0.5"/>
              </g>
            </g>
            <path id="Path_717" data-name="Path 717" d="M1698.852,213.494V989.742A33.469,33.469,0,0,1,1665.4,1023.2H384.8a33.437,33.437,0,0,1-33.454-33.454V213.494A33.438,33.438,0,0,1,384.8,180.04H1665.4A33.47,33.47,0,0,1,1698.852,213.494Z" transform="translate(-348.806 -180.04)" fill="url(#linear-gradient-3)"/>
          </g>
          <g id="Group_674" data-name="Group 674" transform="translate(552.928 762.296)">
            <g id="Group_667" data-name="Group 667" transform="translate(13.271)" opacity="0.3">
              <g id="Group_666" data-name="Group 666">
                <path id="Path_718" data-name="Path 718" d="M722.191,323.063c.447-1.886-1.737-2.432-4.021,1.291-3.177,5.212-8.09,8.14-14.295,9.53-.4-.993.993-1.34,1.985-3.524,1.142-2.432.4-4.12-.645-4.517-.844-.3-2.681,2.482-3.326,2.978-2.432,2.085-4.815,4.12-7.247,6.155a15.7,15.7,0,0,0-5.261,7.148c-.05.2-.2.893-.347,1.787-16.131,12.31-69.44,27.7-76.637,32.065-1.737,1.042-12.955,1.291-26.555,1.191-.049-1.687-.149-2.73-.149-2.73s-22.038-3.673-32.561-9.877a23.831,23.831,0,0,0-14.94-2.978,20.533,20.533,0,0,0-1.588-2.432c-.1-.149-.2-.248-.3-.4-2.68-3.127-6.651-4.765-9.083-8.041-.248-4.02-.4-13,1.688-16.975,1.539-2.928,7.594-8.388,14.593-14.047,3.078-2.482,5.51-7.644,3.673-15.685-2.73-12.061-3.723-17.323-5.46-20.847-1.241-2.531-3.425-4.269-4.567-6.5a9.089,9.089,0,0,1-.645-1.191c3.127-3.524-6.006-29.136-34.149-28.441-7.1.2-14.444.645-20.8,3.872-6.3,3.177-13.352,8.885-12.905,14.543-9.977,1.936-11.367,12.061-12.161,15.883a50.693,50.693,0,0,0-.6,16.429c1.043,8.091,4.07,15.834,5.659,23.825,1.29,6.5,1.688,13.749-.893,19.953-2.482,5.956-8.388,9.183-11.416,14.99a26.4,26.4,0,0,0,.347,23.924c1.787,3.325,3.673,6.155,5.212,9.034a292.563,292.563,0,0,0-8.19,30.129l-73.758,12.508a4.028,4.028,0,0,0-3.276,4.616L387.9,544.436a3.993,3.993,0,0,0,4.616,3.226l62.342-10.572a102.134,102.134,0,0,0,.1,25.512c.993,7.3,8.339,27.349,9.48,34.6,2.581,16.628,7.892,41,7.594,59.91a41.491,41.491,0,0,0,5.162,3.276c3.971,22.733,7.3,43.53,6.85,46.707-.993,7.1-8.835,27.051-11.515,47.948-.1.844-.2,1.737-.3,2.73h40.9c2.829-14.99,5.162-28.193,6.6-38.269v-.05c.347-2.531.645-4.765.893-6.85.05-.2.05-.447.1-.6.1-1.142.2-2.184.3-3.177.149-1.737.248-3.574.4-5.46.05-.546.05-1.142.1-1.688.1-1.539.149-3.127.2-4.815.05-.447.05-.894.1-1.39.05-2.035.1-4.12.149-6.353.05-.645.05-1.34.05-1.985.05-1.687.05-3.375.05-5.112,0-.794.05-1.589.05-2.383v-1.985c6.85,19.854,12.161,35.192,12.161,35.192a223.836,223.836,0,0,0-7.247,44.92h39.162c1.241-22.634,2.283-41.446,2.631-50.43a391.636,391.636,0,0,0-1.241-47.253c0-.05,0-.05.05-.05,2.432-22.832,1.985-41.048.248-72.716-1.39-25.066-7.892-49.189-13.848-67.107l38.467-6.552a3.918,3.918,0,0,0,3.226-4.566L578.745,408.982a52.941,52.941,0,0,1,5.956.3,32.25,32.25,0,0,0,.844-4.616c13.9-1.191,25.463-2.432,28.342-2.978,22.534-4.418,78.573-42.339,83.486-45.714,3.375.844,13.8-2.78,16.479-7.1a7.368,7.368,0,0,0,1.241-4.715c1.589-1.886,4.368-8.537-.447-7.147C719.61,333.685,720.851,328.671,722.191,323.063Z" transform="translate(-369.53 -247.007)" fill="#5fb0e7"/>
              </g>
            </g>
            <g id="Group_673" data-name="Group 673" transform="translate(0 0.01)">
              <g id="Group_668" data-name="Group 668" transform="translate(49.73 678.833)">
                <path id="Path_719" data-name="Path 719" d="M597.261,396.112c0,6.81-49.333,12.339-110.2,12.339s-110.191-5.529-110.191-12.339,49.333-12.339,110.191-12.339S597.261,389.3,597.261,396.112Z" transform="translate(-376.875 -383.773)" fill="#00a4d6" opacity="0.5"/>
              </g>
              <g id="Group_672" data-name="Group 672" transform="translate(0)">
                <g id="Group_669" data-name="Group 669" transform="translate(88.959 255.765)">
                  <path id="Path_720" data-name="Path 720" d="M443.728,340.7l-52.47-42.16s-12.3,29.662-2.541,60.769c4.8,15.293-.3,26.163,2.288,33.414,2.422,6.77,20.207,103.038,19.219,110.131s-8.825,27.061-11.5,47.923c-3.216,25.1-.625,106.543-3.068,128.213s17.591,24.847,18.514,17.511c7.882-62.679,30.322-160.6,33.042-191.905S447.158,416.139,443.728,340.7Z" transform="translate(-384.093 -298.538)" fill="#ffe1bd"/>
                  <path id="Path_721" data-name="Path 721" d="M414,319.494l-21.14,51.859a115,115,0,0,1,16.886,53.422c.611,9.892-.025,19.834.486,29.732a9.709,9.709,0,0,0,.353,2.149c2.645-14.752,4.591-26.907,5.281-34.809,1.921-22.118,1.1-57.185-.759-102.433A9.149,9.149,0,0,0,414,319.494Z" transform="translate(-352.747 -215.791)" fill="#fccb95"/>
                  <path id="Path_722" data-name="Path 722" d="M416.13,378.043s-4.249,22.773-2.889,25.632,6.19,11.143,11.009,14.067c5.053,3.063,16.171,6.587,17.084,7.942a3.424,3.424,0,0,1-.521,4.646c-3.986,3.286-11,5.013-15.625,4.363-15.01-2.115-16.717-8.686-25.453-9.54-1.5-.144-4.239,2.144-8.448.114s-6.323-5.827-6.056-9.451c.472-6.259,3.852-11.49,6.239-16.166S395.11,373.8,395.11,373.8" transform="translate(-383.07 -0.218)" fill="#ffe1bd"/>
                  <path id="Path_723" data-name="Path 723" d="M443.714,407.788c1.047-1.891,1.256-4.716.223-5.381a87.144,87.144,0,0,0-9.441-5.38c-2.928-1.266-7.559-2.333-5.917-1.5s-1.266,4.179-3.981,4.08c-9.386-.352-16.444-6.413-21.815-7.619-7.753-1.742-11.193-10.761-11.57-12.23-1.434.963-4.646,8.364-5.281,10.687-.571,2.095-1.593,5.926-.948,8.081a18.767,18.767,0,0,1,1.037,7.659s1.544,1.132,5.584,1.866a21.821,21.821,0,0,0,5.966-.055l.551-4.854a21.843,21.843,0,0,1,4.775.352,25.786,25.786,0,0,1,7.361,3.227c1.1,1.251,2.015,3.559,3.445,4.239a29.9,29.9,0,0,0,12.369,2.775C436.134,414.077,441.926,411.02,443.714,407.788Z" transform="translate(-384.778 23.385)" fill="#594a5f"/>
                </g>
                <g id="Group_670" data-name="Group 670" transform="translate(98.88 246.866)">
                  <path id="Path_724" data-name="Path 724" d="M511.952,732c-1.117-1.211-13.054-3.028-18.668-5.306-5.346-2.174-11.868-9.262-13.153-12.285s-1.157-18.4-1.057-24.867c.66-44.493,7.783-153.284,8.711-179.328,1.608-45.268-4.735-91.915-22.882-164.373l-65.325-49.094s-17.814,33.931-11.411,66.139c3.718,18.688,19.273,21.408,21.974,28.659s43.108,124.173,43.108,124.173-7.376,25.438-7.54,53.229c-.139,23.721,11.342,95.166,13.615,122.406.288,5.321,1.335,18.062-.194,22.137-1.871,4.993-6.716,10.885-6.408,17.159.179,3.633,2.844,7.083,7.455,8.458s7.142-1.3,8.716-1.385c9.138-.467,11.729,5.792,27.508,5.628,4.869-.055,11.9-2.814,15.6-6.671A3.339,3.339,0,0,0,511.952,732Z" transform="translate(-386.777 -296.745)" fill="#ffe1bd"/>
                  <path id="Path_725" data-name="Path 725" d="M462.094,401.448c.839-2.03.7-4.864-.452-5.371a90.354,90.354,0,0,0-10.438-3.911c-3.187-.814-8.105-1.176-6.3-.591s-.774,4.328-3.6,4.636c-9.743,1.067-17.8-3.881-23.507-4.269-8.23-.566-11.337-9-11.907-10.4-1.36,1.171-5.346,9-5.7,11.4-.323,2.159-.894,6.11.04,8.15a17.769,17.769,0,0,1,2.045,7.435s1.742.889,6.011,1.008a23.826,23.826,0,0,0,6.16-.948l-.05-4.894a23.81,23.81,0,0,1,4.978-.367,16.533,16.533,0,0,1,8.071,2.76c1.345,1,2.774,2.68,4.358,3.062a33.049,33.049,0,0,0,12.816.839C455.056,408.819,460.659,404.917,462.094,401.448Z" transform="translate(-335.505 39.359)" fill="#594a5f"/>
                </g>
                <g id="Group_671" data-name="Group 671" transform="translate(162.169 74.589)">
                  <path id="Path_726" data-name="Path 726" d="M439.708,296.4c3.236.938,13.843-2.74,16.578-7.113a7.4,7.4,0,0,0,1.241-4.71c1.6-1.876,4.353-8.532-.432-7.142,4.929-3.3,6.179-8.314,7.515-13.923.447-1.881-1.732-2.447-4.006,1.281-3.167,5.187-8.076,8.155-14.3,9.545-.4-1.027.978-1.36,2.005-3.549,1.142-2.422.4-4.1-.69-4.507-.819-.308-2.675,2.457-3.311,3q-3.618,3.068-7.232,6.14a15.105,15.105,0,0,0-5.246,7.143c-.2.546-1.464,6.105.918,5.326" transform="translate(-273.534 -262.037)" fill="#ffe1bd"/>
                  <path id="Path_727" data-name="Path 727" d="M408.393,330.336c24.336-.278,67.916-4.447,73.907-5.619,23.6-4.631,83.9-45.972,83.9-45.972s1.147-9.649-8.046-12.32c-15.3,12.409-70.051,28.133-77.347,32.571-4.725,2.874-81.283-.258-81.283-.258" transform="translate(-399.528 -244.643)" fill="#ffe1bd"/>
                </g>
                <path id="Path_728" data-name="Path 728" d="M395.94,273.277S385.6,301.147,382.221,323.2l25.016,3.936V291.7" transform="translate(-305.956 -142.895)" fill="#6f6f6f"/>
                <rect id="Rectangle_81" data-name="Rectangle 81" width="210.816" height="117.2" rx="0.802" transform="translate(0 185.775) rotate(-9.643)" fill="#2c1e56"/>
                <path id="Path_729" data-name="Path 729" d="M577.3,379.826,388.443,412.7a3.468,3.468,0,0,1-4-2.839L368.49,315.975a3.463,3.463,0,0,1,2.839-4L560.182,279.1a3.468,3.468,0,0,1,4,2.839l15.953,93.885A3.475,3.475,0,0,1,577.3,379.826Z" transform="translate(-360.578 -120.01)" fill="#39297f"/>
                <path id="Path_730" data-name="Path 730" d="M390.744,373.53l-3.157.526a2.98,2.98,0,0,1-3.445-2.442L370.4,290.743a2.983,2.983,0,0,1,2.447-3.445l3.157-.531a2.989,2.989,0,0,1,3.445,2.447l13.744,80.871A2.992,2.992,0,0,1,390.744,373.53Z" transform="translate(-352.986 -89.596)" fill="#4c4199"/>
                <path id="Path_731" data-name="Path 731" d="M394.161,372.876,391,373.4a2.991,2.991,0,0,1-3.45-2.447l-13.739-80.866a2.991,2.991,0,0,1,2.447-3.45l3.152-.526a2.991,2.991,0,0,1,3.45,2.442L396.6,369.427A2.991,2.991,0,0,1,394.161,372.876Z" transform="translate(-339.443 -92.189)" fill="#4c4199"/>
                <path id="Path_732" data-name="Path 732" d="M397.573,372.22l-3.157.531a2.992,2.992,0,0,1-3.445-2.447l-13.739-80.871a2.98,2.98,0,0,1,2.442-3.445l3.157-.531a2.987,2.987,0,0,1,3.445,2.447l13.744,80.871A2.983,2.983,0,0,1,397.573,372.22Z" transform="translate(-325.899 -94.784)" fill="#4c4199"/>
                <path id="Path_733" data-name="Path 733" d="M400.994,371.567l-3.157.526a2.983,2.983,0,0,1-3.445-2.442L380.648,288.78a2.99,2.99,0,0,1,2.447-3.45l3.157-.526a2.988,2.988,0,0,1,3.445,2.447l13.744,80.866A2.994,2.994,0,0,1,400.994,371.567Z" transform="translate(-312.36 -97.377)" fill="#4c4199"/>
                <path id="Path_734" data-name="Path 734" d="M404.411,370.911l-3.157.531A2.994,2.994,0,0,1,397.8,369l-13.739-80.871a2.986,2.986,0,0,1,2.447-3.445l3.152-.531a2.994,2.994,0,0,1,3.45,2.447l13.739,80.871A2.984,2.984,0,0,1,404.411,370.911Z" transform="translate(-298.816 -99.972)" fill="#4c4199"/>
                <path id="Path_735" data-name="Path 735" d="M407.823,370.258l-3.157.526a2.989,2.989,0,0,1-3.445-2.442l-13.739-80.871a2.987,2.987,0,0,1,2.442-3.45l3.157-.526a2.983,2.983,0,0,1,3.445,2.447l13.744,80.871A2.988,2.988,0,0,1,407.823,370.258Z" transform="translate(-285.273 -102.565)" fill="#4c4199"/>
                <path id="Path_736" data-name="Path 736" d="M411.244,369.6l-3.157.526a2.983,2.983,0,0,1-3.444-2.447L390.9,286.817a2.991,2.991,0,0,1,2.447-3.45l3.157-.526a2.985,2.985,0,0,1,3.445,2.442l13.744,80.871A2.994,2.994,0,0,1,411.244,369.6Z" transform="translate(-271.733 -105.157)" fill="#4c4199"/>
                <path id="Path_737" data-name="Path 737" d="M414.661,368.949l-3.157.526a2.987,2.987,0,0,1-3.45-2.442l-13.739-80.871a2.983,2.983,0,0,1,2.447-3.445l3.152-.531a2.991,2.991,0,0,1,3.45,2.447L417.1,365.5A2.989,2.989,0,0,1,414.661,368.949Z" transform="translate(-258.19 -107.753)" fill="#4c4199"/>
                <path id="Path_738" data-name="Path 738" d="M418.073,368.3l-3.157.526a2.988,2.988,0,0,1-3.445-2.447l-13.739-80.866a2.987,2.987,0,0,1,2.442-3.45l3.157-.526a2.983,2.983,0,0,1,3.444,2.442l13.744,80.871A2.991,2.991,0,0,1,418.073,368.3Z" transform="translate(-244.647 -110.346)" fill="#4c4199"/>
                <path id="Path_739" data-name="Path 739" d="M421.494,367.639l-3.157.531a2.987,2.987,0,0,1-3.445-2.447l-13.744-80.871a2.983,2.983,0,0,1,2.447-3.445l3.157-.531a2.992,2.992,0,0,1,3.445,2.447l13.744,80.871A2.987,2.987,0,0,1,421.494,367.639Z" transform="translate(-231.107 -112.941)" fill="#4c4199"/>
                <path id="Path_740" data-name="Path 740" d="M424.911,366.986l-3.157.526a2.991,2.991,0,0,1-3.45-2.442L404.565,284.2a2.991,2.991,0,0,1,2.447-3.45l3.152-.526a2.991,2.991,0,0,1,3.45,2.447l13.739,80.871A2.989,2.989,0,0,1,424.911,366.986Z" transform="translate(-217.564 -115.534)" fill="#4c4199"/>
                <path id="Path_741" data-name="Path 741" d="M406.258,298.828c-18.032,15.561-24.952,41.381-21.323,68.934.963,7.3,8.324,27.334,9.46,34.626,2.586,16.583,7.9,40.994,7.584,59.9,24.2,17.556,73.351,16.017,95.6,2.919,2.472-22.857,2.01-41.029.258-72.711-2.641-47.794-23.964-92.357-24.391-96.337" transform="translate(-298.901 -52.186)" fill="#594a5f"/>
                <path id="Path_742" data-name="Path 742" d="M470.907,377.928c-.918,8.532,0,21.651,1.186,36.234.218,2.482,1.4,7.073,1.191,9.555a5.466,5.466,0,0,1-1.891,3.728c-2.591,2.536-7.614,4.1-13.123,5.073-17.923,3.241-46.275,1.082-54.266,2.645-7.5,1.514-15.228-1.022-15.228-5.614,0-3.187,2.919-4.968,3.187-11.232.6-13.714.164-44.925-2.377-58.858-5.291-29.21-6.745-46.543-3.077-79.213L441.26,264.7c4.214.7,2.377,13.55,6.592,14.255,3.077.486,20.41,16.956,25.324,36.393a76.234,76.234,0,0,1,6.319,12.637c2.427,6.532,2.159,11.337-.055,17.278C475.225,356.759,472.257,365.023,470.907,377.928Z" transform="translate(-297.028 -176.911)" fill="#535353"/>
                <path id="Path_743" data-name="Path 743" d="M405.415,327.393c-.918,8.532,0,21.651,1.186,36.234.218,2.482,1.4,7.073,1.191,9.555a5.466,5.466,0,0,1-1.891,3.728v-.055c1.618-3.619-2.268-21.6-3.941-31.7-1.728-10.151-1.246-29.7,2.373-42.066,3.564-12.364,4.914-18.251,4.914-18.251s2.809-4.209,4.755-7.4c2.427,6.532,2.159,11.337-.055,17.278C409.733,306.224,406.765,314.488,405.415,327.393Z" transform="translate(-231.537 -126.375)" fill="#6f6f6f"/>
                <path id="Path_744" data-name="Path 744" d="M427.627,270.435a23.974,23.974,0,0,1,16.136,2.765c10.562,6.234,32.6,9.907,32.6,9.907s1.693,25.175-1.028,34.839c0,0-7.316-1.152-29.022,1.206-22.44,2.432-52.4,17.3-52.4,17.3" transform="translate(-259.586 -155.679)" fill="#535353"/>
                <path id="Path_745" data-name="Path 745" d="M458.037,271.334c-5.366-10.275-13.873-24.813-34.224-22.8s-37.772,14.846-37.524,30.094,10.572,33.608,14.548,44.161,2.293,26.227,2.293,26.227l45.1-1.618s-1.171-13.784,1.578-19c1.544-2.913,7.584-8.378,14.593-14.037,3.057-2.472,5.535-7.634,3.7-15.685-2.74-12.037-3.723-17.328-5.48-20.857C461.363,275.29,459.208,273.573,458.037,271.334Z" transform="translate(-289.842 -241.703)" fill="#ffe1bd"/>
                <path id="Path_746" data-name="Path 746" d="M472.255,358.758c-2.735-3.236-6.929-4.854-9.346-8.339a18.812,18.812,0,0,1-3.216-12.21c.328-2.472,1.593-4.686,2.7-6.909,4.909-9.888,5.217-16.28-1.787-24.277-2.288-2.611-4.557-5.366-5.723-8.642-1.062-2.963-1.881-6.195.993-7.991,2-1.251,3.6-1.385,5.2.05,1.112,1,4.328,10.443,4.9,3.966.541-6.2,2.894-7.768-2.551-18.9-.641-1.32-3.658-6.507-3.207-7.693,6.994,1.33,9.381,3.172,12.245,7.639,3.127-3.5-6.006-29.131-34.144-28.426-7.108.174-14.454.64-20.777,3.852s-13.367,8.87-12.945,14.553c-9.962,1.916-11.366,12.081-12.141,15.864a50.013,50.013,0,0,0-.591,16.474c1.057,8.086,4.06,15.8,5.659,23.81,1.3,6.512,1.663,13.724-.913,19.929-2.472,5.961-8.384,9.2-11.382,15.02a26.173,26.173,0,0,0,.333,23.909c3.886,7.361,8.751,12.2,7.48,21.239-.417,2.943-3.038,16.538,9.52,27.587,5.137,4.522,14.816,6.86,21.5,5.822s11.694-2.338,17.631-5.564c10.513-5.708,19.884-9.391,26.679-24.555,3.847-8.592-1.782-9.788,1.643-18.588,1.926-4.934,6.036-9.024,6.562-14.5a18.408,18.408,0,0,0-4-12.731Z" transform="translate(-304.885 -247.009)" fill="#00215b"/>
              </g>
            </g>
          </g>
          <g id="Group_675" data-name="Group 675" transform="translate(1414.726 730.02)">
            <path id="Path_747" data-name="Path 747" d="M819.177,781.557c-1.489-2.234-3.127-4.269-4.765-6.3h.05c-.05-.05-.1-.149-.2-.248-.943-1.142-1.936-2.283-2.929-3.375-17.819-21.492-18.911-39.808-18.911-40.2-.3-24.371-.6-58.272-.894-82.2-.05-6.7-.1-12.657-.2-17.372,0-1.985,0-3.723-.05-5.261,0,0,.3-1.936.744-4.467.4-2.531.943-5.708,1.44-8.24.5-2.631,1.042-5.708,1.539-9.083v-.1a91.156,91.156,0,0,0-.1-26.505,29.446,29.446,0,0,1,8.934,1.936s-3.623-12.806-7.4-28.094c-1.39-5.41-2.73-11.118-4.021-16.677-2.432-10.82-4.418-21.095-4.864-27.4-.844-12.756,2.829-31.519,5.311-52.415.6-5.013,1.092-10.175,1.439-15.387q.6-7.445.6-15.039c0-1.539-.05-3.077-.1-4.567a94.171,94.171,0,0,0-8.09-34.844c-.7-1.539-1.39-3.028-2.184-4.467A143.245,143.245,0,0,0,768,356.182c-1.886-5.41-4.815-7.5-4.864-7.5-2.085-6.452-1.291-15.288-1.291-15.288,7.644-3.177,15.486-33.107,11.962-54.648q-.3-1.936-.745-3.723c-4.418-18.861-16.578-26.257-25.512-24.669-19.358-23.627-48.643,2.234-55.393,5.46a81.313,81.313,0,0,1-23.775,7.545,34.541,34.541,0,0,1-5.311.3,10.774,10.774,0,0,1-3.375-.5c1.539,20,8.934,29.384,18.166,32.859a25.068,25.068,0,0,0,6.254,1.539,34.949,34.949,0,0,0,5.113.2c-.348,1.588-.645,5.36,2.928,10.87.447.695,2.283,1.688,2.482,2.531.794,2.879.149,5.758,0,8.239a3.3,3.3,0,0,0-.049.7c-.447,2.085-.943,4.914-1.291,7.594-.149,1.539-.3,3.078-.3,4.318a8.01,8.01,0,0,0,.3,2.482c.6,1.589,2.68,1.985,4.815,1.936.844-.05,1.638-.1,2.382-.2.347.695.645,1.39.993,2.085a60.7,60.7,0,0,0,10.076,14.94,13.733,13.733,0,0,0,3.673.943c5.609.695,13.253-1.191,21.095-4.269a44.738,44.738,0,0,1,1.638,6.006c-1.986.695-3.226,1.092-3.226,1.092a87.589,87.589,0,0,0,0,11.118,36.621,36.621,0,0,0-3.673,3.673,22.819,22.819,0,0,0-1.985,2.482,17.079,17.079,0,0,0-.993,1.589c-8.388,12.856-14.99,28.193-20.251,44.672-2.085,6.4-3.921,12.955-5.559,19.606-.05.1-.05.2-.1.3-.943.149-1.985.347-3.127.5-13.848,2.482-38.269,7.445-63.98,14.593l-7.3,2.085.149,1.191c-3.971.05-10.225-.546-13.9-.149-2.382.2-7.346,4.815-12.011,8.587-3.773,4.318-7.2,8.19-6.155,8.835a1.321,1.321,0,0,0,.6.149c.894,0,2.134-.844,3.524-1.985a3.142,3.142,0,0,0,2.035-.05c1.837-.546,4.616-3.971,5.956-4.914.6-.447,2.085-1.39,3.475-2.283a9.29,9.29,0,0,1,4.517.1,2.166,2.166,0,0,1-1.141,2.631c-1.241.794-4.17,1.142-4.418,1.985-.248.794,0,2.383,4.219,1.588a22.52,22.52,0,0,0,8.736-3.574c1.39-1.092,2.779-1.539,5.956-1.886l.248,1.638s31.866.3,61.846-.4l4.815-.149q-.67,3.5-1.191,7a11.563,11.563,0,0,1-1.836.2l-10.87.3a2.334,2.334,0,0,0-.844-.2H580.729l-7.446-20.7-5.559-15.387-7.1-19.606L547.82,385.02a3.158,3.158,0,0,0-3.971-1.886l-1.29.5a3.11,3.11,0,0,0-1.886,4.021l11.863,32.908,7.1,19.606,5.51,15.387,7.544,20.847c-2.382-1.985-3.722-2.234-3.375-.149.4,2.78,3.475,6.75,3.475,6.75,2.432,2.829,2.879,3.872,8.14,6.6,2.73,1.44,9.282,2.879,13.054,3.673a12.084,12.084,0,0,0,5.162-.149,50.575,50.575,0,0,1,9.332-1.241l-.1,3.276s32.908,3.524,55.691,6.8c9.381,1.34,18.613,2.134,27.15,2.532-.248,2.383-.546,4.815-.794,7.2-.844,8.239-1.489,16.231-1.986,23.676-.446,5.907-.794,11.466-1.092,16.677-1.142,21.889-1.34,36.978-2.234,38.865,0,0,2.829,2.879,12.707,3.474q.224,2.979.447,6.105v.05c-.348,3.077-1.192,15.437-2.333,31.32-.348,5.46-.794,11.317-1.191,17.372-1.737,25.066-3.723,53.358-5.013,68.894a19.324,19.324,0,0,0-1.142,7.644c.05,1.737-.05,19.209,0,21.294.347,8.041,1.042,20.9,1.886,36.482H731.62c-.248-1.489-.546-2.978-.844-4.418-.1-.546-.2-1.042-.3-1.588-.05-.893-.149-1.985-.348-3.425-2.283-19.209-2.333-13.65,2.929-37.922,2.73-7,6.006-15.337,9.53-24.271,5.659,20.1,10.374,37.226,12.359,47.352a2.146,2.146,0,0,0,.05.248c.1.546.2,1.042.3,1.539a12.6,12.6,0,0,0,.794,2.482c.1.248.248.546.347.844a26.318,26.318,0,0,0,2.382,4.716c0,.1.1.149.149.248,2.333,3.723,5.459,8.537,9.133,14.2h52.365C820.02,782.848,819.623,782.2,819.177,781.557Z" transform="translate(-540.482 -240.505)" fill="#5fb0e7" opacity="0.3"/>
          </g>
          <g id="Group_682" data-name="Group 682" transform="translate(1400.234 730.01)">
            <g id="Group_676" data-name="Group 676" transform="translate(68.726 707.138)" opacity="0.5">
              <path id="Path_748" data-name="Path 748" d="M551.408,391.462c0,4.686,70.785,8.488,158.109,8.488s158.094-3.8,158.094-8.488-70.78-8.493-158.094-8.493S551.408,386.771,551.408,391.462Z" transform="translate(-551.408 -382.969)" fill="#00a4d6"/>
            </g>
            <g id="Group_677" data-name="Group 677" transform="translate(123.352 671.425)">
              <path id="Path_749" data-name="Path 749" d="M569.685,375.774s-.869,22.366.3,27.488c.918,4.035,13.451,4.432,14.975,2.293s3.475-28.1,3.475-28.1" transform="translate(-534.824 -375.774)" fill="#ffe1bd"/>
              <path id="Path_750" data-name="Path 750" d="M616.022,390.261a87.7,87.7,0,0,1-1.2,11.307H599.682l-.749-2.526s-4.909,2.526-8.766,2.526H577.381c-9.356,0-14.667-1.191-14.905-2.834-.988-6.885,10.19-6.572,13.1-6.572,8.354,0,17.407-3.911,19.378-8.155,1.43-3.077.8-3.857,2.527-3.281a4.337,4.337,0,0,1,2.6,2.239c1.593,2.929,4.616,4.889,7.9,4.308a9.1,9.1,0,0,0,5.117-2.467S616.022,385.958,616.022,390.261Z" transform="translate(-562.414 -356.841)" fill="#3a3a3a"/>
            </g>
            <g id="Group_678" data-name="Group 678" transform="translate(293.822 663.92)">
              <path id="Path_751" data-name="Path 751" d="M601.164,384.522s4.139,11.148,5.951,14.866,14.131-.864,14.757-3.42-9.371-21.706-9.371-21.706" transform="translate(-579.295 -374.262)" fill="#ffe1bd"/>
              <path id="Path_752" data-name="Path 752" d="M643.911,382.236c1.593,4,3.956,11.744,3.956,11.744l-11.481,6.845-2.253-1.7a22.4,22.4,0,0,1-6.041,6.313,49.332,49.332,0,0,1-11.361,4.71c-10.488,2.392-18.593,1.236-19.422-.208-3.465-6.026,10.433-9.336,13.138-10.413a18.741,18.741,0,0,0,11.58-15.293c.189-3.39-.685-3.882,1.132-3.986,0,0,3.539-.6,5.638,4.68.139-.03,8.279-1.479,10.374-6.671C639.171,378.255,642.318,378.24,643.911,382.236Z" transform="translate(-596.758 -358.436)" fill="#3a3a3a"/>
            </g>
            <g id="Group_680" data-name="Group 680" transform="translate(148.941 300.529)">
              <path id="Path_753" data-name="Path 753" d="M664.052,386.612s1.191-7.678,2.159-12.682c3.082-15.878,7.9-47.749-18.087-72.88,0,0-30.63,13.714-55.16,15.367-19.313,1.305-23.745-.015-23.745-.015s-1.256,26.068,6.537,91.414Z" transform="translate(-561.326 -301.05)" fill="#594a5f"/>
              <g id="Group_679" data-name="Group 679" transform="translate(21.302 24.846)">
                <path id="Path_754" data-name="Path 754" d="M699.528,505.954c-11.962,7.108-19.71,9.56-19.71,9.56l-1.812-3.187q-1.913-3.537-3.971-7.207l-.05-.05a2.483,2.483,0,0,0-.2-.392c-4.363-7.649-9.168-15.739-14.216-24.073l-.05-.045a.4.4,0,0,0-.094-.2C632.168,435.7,597.413,385.4,585.059,365.6c-.05-.1-.149-.149-.149-.243a30.939,30.939,0,0,1-2.4-4.71c-.1-.293-.243-.586-.342-.834a12.755,12.755,0,0,1-.784-2.5c-.1-.491-.194-.983-.293-1.519a2.16,2.16,0,0,1-.049-.248,10.434,10.434,0,0,1,2.5-8.87,8.658,8.658,0,0,1,1.568-1.424c6.666-4.8,20.048-3.723,31.077,4.07.541.392,1.131.834,1.717,1.276.293.193.59.442.883.635,9.168,6.716,19.07,15.347,26.47,26.57C670.457,415.846,685.407,473.354,699.528,505.954Z" transform="translate(-535.979 -162.134)" fill="#594a5f"/>
                <path id="Path_755" data-name="Path 755" d="M654.768,499.029c.442,20.936-7.257,25.741-15.74,23.631a23.925,23.925,0,0,1-4.363-1.618,38.25,38.25,0,0,1-14.265-12.7c-.05-.1-.144-.149-.1-.243a26.578,26.578,0,0,1-1.911-3.534c-.1-.293-.243-.586-.342-.834a12.756,12.756,0,0,1-.784-2.5c-.1-.491-.194-.983-.293-1.519a2.166,2.166,0,0,1-.049-.248c-2.06-10.438-6.964-28.332-12.9-49.219-3.38-11.813-7.058-24.56-10.736-37.405-11.173-38.577-21.716-76.424-21.422-87.5,1.082-39.808,47.307-8.14,69.464,7.45,9.317,6.616,11.719,17.993,11.868,28.481.194,9.852,1.077,106.87,1.469,133.881.05.685.05,1.325.05,1.911C654.768,497.8,654.768,498.444,654.768,499.029Z" transform="translate(-571.861 -306.056)" fill="#594a5f"/>
                <path id="Path_756" data-name="Path 756" d="M603.913,339.4s.973,20.624,22.063,43.883c0,0-30.491-9.232-32.154-10.984s-9.48-21.244-9.223-23.463S603.913,339.4,603.913,339.4Z" transform="translate(-521.394 -173.891)" fill="#594a5f"/>
              </g>
              <path id="Path_757" data-name="Path 757" d="M683.985,608.1c-4.363-7.649-9.168-15.739-14.216-24.073l-.05-.045a.4.4,0,0,0-.094-.2c-27.26-44.662-62.015-94.958-74.369-114.762-.049-.1-.149-.149-.149-.243a30.947,30.947,0,0,1-2.4-4.71c-.1-.293-.244-.586-.343-.834a12.772,12.772,0,0,1-.784-2.5c-.1-.491-.194-.983-.293-1.519a2.16,2.16,0,0,1-.049-.248c-2.06-10.438-6.964-28.332-12.9-49.218L613.2,316.273h12.7s-14.315,43.188-20.152,62.65c-5.832,19.412-7.441,49.814-7.952,60.952-1.122,24.46,28.9,65.926,37.48,81.04C644.505,537.175,680.848,601.925,683.985,608.1Z" transform="translate(-524.874 -240.713)" fill="#4c4051"/>
              <path id="Path_758" data-name="Path 758" d="M595.846,551.371c-.625.04-1.246.035-1.822.035-12.771.059-20.038-1.494-20.038-1.494l.025-3.678c1.037-56.411-5.256-148.653-6.413-177.8-.079-2.04.03-19.551-.01-21.249-.541-25.106,24.584-2.73,33.737,16.926a78.037,78.037,0,0,1,5.147,15.109c1.6,6.572,1.658,13.873,3.291,21.309C619.433,444.5,599.827,515.028,595.846,551.371Z" transform="translate(-567.569 -162.423)" fill="#594a5f"/>
              <path id="Path_759" data-name="Path 759" d="M655.622,360.261c-.1.571-41.56,103.44-49.655,125.776l0,.04c-1.186,3.122-5.018,5.688-9.883,6.855-11.158,2.74-27.6-1.792-28.466-23.954A54.22,54.22,0,0,1,567.9,461c1.906-17.918,8.314-117.045,9.351-126.6.993-9.555,3.068-23.478,8.165-25.13C610.861,301.16,663.117,324.509,655.622,360.261Z" transform="translate(-567.569 -274.868)" fill="#594a5f"/>
              <path id="Path_760" data-name="Path 760" d="M584.139,340.028c-5.649,26.332-5.634,19.953-3.271,39.6,2.293,19.12-6.165-16.727-6.165-16.727l5.286-13.372Z" transform="translate(-539.293 -146.559)" fill="#594a5f"/>
            </g>
            <path id="Path_761" data-name="Path 761" d="M568.188,285.85s-5.723-.918-6.25-.456a20.5,20.5,0,0,1-2.174,1.38v1.1a2.722,2.722,0,0,0-.417.06c-.263.134-4.164,2.636-4.562,2.943s-5.172,5.733-5.172,5.733.784.715,2.581.189,4.611-3.951,5.927-4.914c.6-.442,2.07-1.38,3.485-2.268,1.837-.337,4.576-.521,5.991.973C569.835,292.958,568.188,285.85,568.188,285.85Z" transform="translate(-489.793 -63.089)" fill="#f4d4b3"/>
            <path id="Path_762" data-name="Path 762" d="M597.043,283.681s-10.141,3.261-13.288,3.847-11.888-.467-16.548,0c-2.4.238-7.326,4.839-12.032,8.627-3.772,4.289-7.162,8.17-6.14,8.805,2.115,1.31,7.45-5.405,11.823-8.542,3.311-2.378,6.085-2.273,7.6-1.226s.844,2.591-.437,3.405-4.2,1.166-4.432,1.98,0,2.4,4.2,1.608a22.182,22.182,0,0,0,8.741-3.589c1.395-1.047,2.795-1.514,5.942-1.861s18.643-3.1,18.643-3.1" transform="translate(-492.818 -69.363)" fill="#ffe1bd"/>
            <path id="Path_763" data-name="Path 763" d="M637.447,280.529,634.26,307.3l-.342,2.7c-.878.05-1.712.05-2.6.1-4.021.149-8.19.243-12.354.392-29.955.685-61.816.392-61.816.392l-1.836-11.9a715.479,715.479,0,0,1,71.3-16.633C633.431,281.169,637.447,280.529,637.447,280.529Z" transform="translate(-467.197 -81.856)" fill="#6f6f6f"/>
            <g id="Group_681" data-name="Group 681" transform="translate(0 141.587)">
              <rect id="Rectangle_82" data-name="Rectangle 82" width="7.625" height="103.379" rx="0.632" transform="matrix(0.941, -0.338, 0.338, 0.941, 0, 2.58)" fill="#1c44b5"/>
              <rect id="Rectangle_83" data-name="Rectangle 83" width="111.079" height="7.871" rx="0.734" transform="translate(34.419 94.176)" fill="#1c44b5"/>
            </g>
            <path id="Path_764" data-name="Path 764" d="M586.618,280.529,583.432,307.3c-.878.834-1.861,1.812-2.938,2.794-4.02.149-8.19.243-12.354.392a240.27,240.27,0,0,1,7.649-28.138C582.6,281.169,586.618,280.529,586.618,280.529Z" transform="translate(-416.369 -81.856)" fill="#6f6f6f"/>
            <path id="Path_765" data-name="Path 765" d="M685.558,490.139c-13.58-5.539-33.926.591-72.209,9.952-38.338,9.411-46.474.784-46.474.784,1.37-2.889,1.027-37.013,5.291-79.218.884-9.068,2.06-18.529,3.435-28.138,1.554-10.589,3.442-21.357,5.946-32.886,6.022-27.745,15.29-55.466,29.3-76.337,9.51-14.171,36.522-21.08,36.522-21.08,14.757,18.037,29.315,39.51,29.265,71.917s-8.577,64.119-7.351,82.8C670.608,436.657,685.558,490.139,685.558,490.139Z" transform="translate(-421.379 -150.477)" fill="#535353"/>
            <path id="Path_766" data-name="Path 766" d="M600.839,394.31c-7.7.928-19.462,1.176-32.9.392.884-9.068,2.06-18.529,3.435-28.138l1.276-.049A15.972,15.972,0,0,0,587.7,354.6c2.546-9.609,6.859-24.907,13.332-45.054,11.521-35.981,23.532-37.405,23.532-37.405s17.6-9.019,18.335,10.1C643.586,301.07,623.339,391.565,600.839,394.31Z" transform="translate(-417.154 -123.522)" fill="#6f6f6f"/>
            <path id="Path_767" data-name="Path 767" d="M590.551,352.343s13.049-4.71,20.5-27.1l-8.071-14.221-17.154,7.967s-2.914,15.471-2.3,16.236S590.551,352.343,590.551,352.343Z" transform="translate(-355.696 39)" fill="#594a5f"/>
            <path id="Path_768" data-name="Path 768" d="M589.584,302.605l-1.177-9.555s-8.592,1.107-12.657.615-8.924-2.646-14.806-3.772c-5.932-1.127-7.207,1.276-6.274,2.7,1.127,1.668,7.793,2.5,7.793,2.5s.933.834-2.7.834h-3.752a15.518,15.518,0,0,1-4.438-2c-.655-.65-1.325-1.31-2.085-2.119-3.881-4.115-6.333-5.41-5.922-2.626s3.469,6.74,3.469,6.74c2.452,2.829,2.919,3.886,8.17,6.611,2.72,1.4,9.287,2.874,13.054,3.643a11.834,11.834,0,0,0,5.142-.129,50.685,50.685,0,0,1,11.153-1.325c3.271.144,5.306.159,5.306.159C597.168,305.469,593.312,303.851,589.584,302.605Z" transform="translate(-513.92 -53.419)" fill="#ffe1bd"/>
            <path id="Path_769" data-name="Path 769" d="M688.143,269.655s-12,1.4-23.537,37.41c-6.443,20.122-10.756,35.445-13.307,45.049a16.018,16.018,0,0,1-15.074,11.917l-84.266,2.214-.551,16.787s32.9,3.554,55.706,6.81,45.138,3.45,57.294,1.961c22.51-2.76,44.587-101.6,43.506-111.7C706.221,264.334,688.143,269.655,688.143,269.655Z" transform="translate(-482.683 -128.381)" fill="#535353"/>
            <path id="Path_770" data-name="Path 770" d="M568.143,273.6s-2.154,4.283,2.626,11.734c.452.7,2.3,1.678,2.526,2.526.8,3.117.05,6.328-.089,8.925,3.673,12.85,9.048,24.788,16.985,33.156,8.155,3.6,24.068-2.055,37.52-9.153,2.874-.248,18.757-8.061,16.459-30.625s-19.929-43.282-21.13-43.754-36.05,5.932-37.45,6.234S568.143,273.6,568.143,273.6Z" transform="translate(-418.273 -217.199)" fill="#ffd1ab"/>
            <path id="Path_771" data-name="Path 771" d="M641.742,305.5s-9.222-2.04-9.609-14.032-1.936-12.394-9.277-5.688S566,318.636,561.745,263.193c5.5,1.742,19.437-1.087,32.481-7.351,6.78-3.261,36.04-29.116,55.4-5.475,9.52-1.683,22.7,6.825,26.242,28.381s-4.293,51.457-11.962,54.678c-4.934,2.075-7.277-2.958-9.113-13.178-.779-5.321,13.1-15.63-1.479-28.957C647.291,287.1,634.634,294.582,641.742,305.5Z" transform="translate(-441.711 -240.503)" fill="#2c1e56"/>
            <path id="Path_772" data-name="Path 772" d="M607.61,262.44s-1.365,15.531,4.388,20.39c-8.85,10.686-28.754,12.29-28.754,12.29s4.532-7.287-5.643-26.218S607.61,262.44,607.61,262.44Z" transform="translate(-385.412 -169.515)" fill="#ffd1ab"/>
            <path id="Path_773" data-name="Path 773" d="M577.03,281.771s-.457-7.738,0-11.108c0,0,19.189-6.616,28.411-8.363,0,0,2.953,2.045,4.865,7.5C610.306,269.8,590.973,279.473,577.03,281.771Z" transform="translate(-381.933 -154.112)" fill="#6f6f6f"/>
            <path id="Path_774" data-name="Path 774" d="M570.72,255.872s-3.221,14.285-1.976,17.735,9.763,1.216,9.763,1.216Z" transform="translate(-415.103 -179.585)" fill="#ffd1ab"/>
          </g>
          <g id="Group_688" data-name="Group 688" transform="translate(431.932 226.724)">
            <g id="Group_683" data-name="Group 683" transform="translate(989.362 260.139)">
              <rect id="Rectangle_84" data-name="Rectangle 84" width="450.873" height="215.914" rx="2.793" transform="translate(9.944 9.929)" fill="#5fb0e7"/>
              <path id="Path_775" data-name="Path 775" d="M992.693,205.364V393.582a13.854,13.854,0,0,1-13.849,13.848H555.7a13.864,13.864,0,0,1-13.9-13.848V205.364a13.864,13.864,0,0,1,13.9-13.848H978.844A13.854,13.854,0,0,1,992.693,205.364Z" transform="translate(-541.805 -191.516)" fill="#fff"/>
              <path id="Path_776" data-name="Path 776" d="M992.693,205.364v27.1H541.805v-27.1a13.864,13.864,0,0,1,13.9-13.848H978.844A13.854,13.854,0,0,1,992.693,205.364Z" transform="translate(-541.805 -191.516)" fill="#aec1ff"/>
              <path id="Path_777" data-name="Path 777" d="M961.352,206.8V336.7H545.229V295.2c16.787-23.031,39.738-38.334,92.237-7.311,50.45,29.811,50.306-66.179,107.957-61.215,57.6,4.964,72.979,91.011,117.7,25.245C907.89,186.151,961.352,206.8,961.352,206.8Z" transform="translate(-528.234 -143.117)" fill="#aec1ff" opacity="0.5"/>
              <rect id="Rectangle_85" data-name="Rectangle 85" width="81.981" height="5.584" transform="translate(16.994 62.873)" fill="#aec1ff" opacity="0.5"/>
              <rect id="Rectangle_86" data-name="Rectangle 86" width="138.565" height="5.584" transform="translate(16.994 72.8)" fill="#aec1ff" opacity="0.5"/>
              <rect id="Rectangle_87" data-name="Rectangle 87" width="104.027" height="5.584" transform="translate(16.994 82.727)" fill="#aec1ff" opacity="0.5"/>
              <rect id="Rectangle_88" data-name="Rectangle 88" width="125.536" height="5.584" transform="translate(16.994 92.654)" fill="#aec1ff" opacity="0.5"/>
              <rect id="Rectangle_89" data-name="Rectangle 89" width="81.981" height="5.584" transform="translate(16.994 102.581)" fill="#aec1ff" opacity="0.5"/>
            </g>
            <g id="Group_685" data-name="Group 685" transform="translate(122.505)">
              <path id="Path_778" data-name="Path 778" d="M623,180.036a134.116,134.116,0,0,1-251.4,0Z" transform="translate(-349.562 23.122)" fill="#5fb0e7"/>
              <g id="Group_684" data-name="Group 684">
                <path id="Path_779" data-name="Path 779" d="M391.184,153.206a134.083,134.083,0,0,0-16.777,120.068l126.868-43.53Z" transform="translate(-367.16 -83.22)" fill="#18bdf7"/>
                <path id="Path_780" data-name="Path 780" d="M398.05,139.106V273.221l98.626,90.833A134.078,134.078,0,0,0,398.05,139.106Z" transform="translate(-244.726 -139.106)" fill="#18bdf7"/>
                <path id="Path_781" data-name="Path 781" d="M482.091,141.606A133.809,133.809,0,0,0,372,199.183l110.091,76.538Z" transform="translate(-347.977 -129.197)" fill="#535353"/>
                <path id="Path_782" data-name="Path 782" d="M389.16,300.358a134.134,134.134,0,0,0,123.542-40.9l-98.625-90.833Z" transform="translate(-279.962 -22.102)" fill="#b8ecff"/>
                <path id="Path_783" data-name="Path 783" d="M368.62,212.156a134.24,134.24,0,0,0,101.951,88.2l24.917-131.732Z" transform="translate(-361.373 -22.102)" fill="#15a7ce"/>
              </g>
            </g>
            <g id="Group_686" data-name="Group 686" transform="translate(0 491.142)">
              <path id="Path_784" data-name="Path 784" d="M530.772,238.956H352.04a8.9,8.9,0,0,0-8.895,8.895v56.43a8.9,8.9,0,0,0,8.895,8.895H500.231c.744,5.966,4.934,17.745,26.465,17.745,0,0-8.86-1.623-10.711-17.745h14.786a8.892,8.892,0,0,0,8.89-8.895v-56.43A8.892,8.892,0,0,0,530.772,238.956Z" transform="translate(-339.839 -234.489)" fill="#5fb0e7"/>
              <path id="Path_785" data-name="Path 785" d="M530.1,238.056H351.368a8.89,8.89,0,0,0-8.889,8.89v56.435a8.9,8.9,0,0,0,8.889,8.895H499.56c.745,5.961,4.934,17.74,26.466,17.74,0,0-8.86-1.623-10.706-17.74H530.1A8.9,8.9,0,0,0,539,303.381V246.946A8.892,8.892,0,0,0,530.1,238.056Z" transform="translate(-342.479 -238.056)" fill="#ebfaff"/>
              <rect id="Rectangle_90" data-name="Rectangle 90" width="183.35" height="7.663" rx="0.551" transform="translate(5.893 6.927)" fill="#b2ebf9"/>
              <rect id="Rectangle_91" data-name="Rectangle 91" width="183.35" height="7.663" rx="0.551" transform="translate(5.893 19.825)" fill="#b2ebf9"/>
              <rect id="Rectangle_92" data-name="Rectangle 92" width="183.35" height="7.663" rx="0.551" transform="translate(5.893 32.724)" fill="#b2ebf9"/>
              <rect id="Rectangle_93" data-name="Rectangle 93" width="183.35" height="7.664" rx="0.551" transform="translate(5.893 45.622)" fill="#b2ebf9"/>
              <rect id="Rectangle_94" data-name="Rectangle 94" width="183.35" height="7.663" rx="0.551" transform="translate(5.893 58.521)" fill="#b2ebf9"/>
            </g>
            <g id="Group_687" data-name="Group 687" transform="translate(1221.467 519.176)">
              <path id="Path_786" data-name="Path 786" d="M597.462,244.6H776.194a8.9,8.9,0,0,1,8.89,8.895v56.435a8.891,8.891,0,0,1-8.89,8.89H628c-.745,5.966-4.934,17.744-26.466,17.744,0,0,8.86-1.623,10.706-17.744H597.462a8.892,8.892,0,0,1-8.895-8.89V253.5A8.9,8.9,0,0,1,597.462,244.6Z" transform="translate(-588.567 -240.137)" fill="#5fb0e7"/>
              <path id="Path_787" data-name="Path 787" d="M598.129,243.7H776.856a8.893,8.893,0,0,1,8.895,8.895v56.43a8.893,8.893,0,0,1-8.895,8.895H628.664c-.739,5.966-4.933,17.744-26.465,17.744,0,0,8.86-1.623,10.711-17.744H598.129a8.893,8.893,0,0,1-8.895-8.895V252.6A8.893,8.893,0,0,1,598.129,243.7Z" transform="translate(-585.924 -243.704)" fill="#ebfaff"/>
              <rect id="Rectangle_95" data-name="Rectangle 95" width="56.46" height="58.322" rx="0.844" transform="translate(193.932 66.181) rotate(180)" fill="#80d4dd"/>
              <rect id="Rectangle_96" data-name="Rectangle 96" width="118.785" height="7.34" rx="0.434" transform="translate(129.798 15.2) rotate(180)" fill="#80d4dd"/>
              <rect id="Rectangle_97" data-name="Rectangle 97" width="92.803" height="7.34" rx="0.384" transform="translate(129.798 27.945) rotate(180)" fill="#80d4dd"/>
              <rect id="Rectangle_98" data-name="Rectangle 98" width="118.785" height="7.34" rx="0.434" transform="translate(129.798 40.691) rotate(180)" fill="#80d4dd"/>
              <rect id="Rectangle_99" data-name="Rectangle 99" width="109.141" height="7.34" rx="0.416" transform="translate(129.798 53.436) rotate(180)" fill="#80d4dd"/>
              <rect id="Rectangle_100" data-name="Rectangle 100" width="45.443" height="7.34" rx="0.269" transform="translate(129.798 66.181) rotate(180)" fill="#80d4dd"/>
            </g>
          </g>
          <g id="Group_689" data-name="Group 689" transform="translate(1128.868 266.214)">
            <path id="Path_788" data-name="Path 788" d="M667.431,223.9H487.006a20.057,20.057,0,0,1,1.762-6.3c4.591-10.83,21.313-32.73,81.531-42.5l29.727-6.12S668.959,168.916,667.431,223.9Z" transform="translate(-466.576 -60.205)" fill="#535353"/>
            <path id="Path_789" data-name="Path 789" d="M607.62,185.876H487.006a20.057,20.057,0,0,1,1.762-6.3,27.432,27.432,0,0,1,14.3-.119c4.417,1.176,7.361,1.946,7.361,1.946H588.9C604.21,181.4,607.62,185.876,607.62,185.876Z" transform="translate(-466.576 -22.184)" fill="#2f95e0"/>
            <path id="Path_790" data-name="Path 790" d="M502.387,195.792c2.04,2.77,3.351,6.736,4.169,10.23a10.039,10.039,0,0,0,10.314,7.718c26.356-1.484,24.6-17.948,24.6-17.948-5.435-8.3-8.736-32.918-8.736-32.918" transform="translate(-405.613 -84.39)" fill="#ffe1bd"/>
            <path id="Path_791" data-name="Path 791" d="M489.973,157.34s-1.092,33.077,13.7,32.6,0-36.477,0-36.477Z" transform="translate(-454.886 -121.691)" fill="#2c1e56"/>
            <path id="Path_792" data-name="Path 792" d="M572.574,194.606a64.9,64.9,0,0,1,.283,12.528,10.4,10.4,0,0,1-.223,1.355,11.039,11.039,0,0,1-.3,1.36c-3.578,14.166-21.517,34.154-34.114,35.777a33.458,33.458,0,0,1-4.87.089c-17.546-.8-27.791-15.178-33.737-30.476-.2-.556-.4-1.072-.6-1.588a140.8,140.8,0,0,1-7.381-33.941c-.1-1.206-.923-14.24,1.628-18.107,2.8-4.249,37.48-8.269,38.2-8.334s34.045,2.338,34.045,2.338S570.9,177.974,572.574,194.606Z" transform="translate(-449.056 -122.461)" fill="#ffe1bd"/>
            <path id="Path_793" data-name="Path 793" d="M571.915,161.766a55.264,55.264,0,0,1-.432,12.28,9.473,9.473,0,0,1-.218,1.355c-2.283,14.166-19.611,36.179-39.1,37.922a41.991,41.991,0,0,1-4.348.387c-21.1.854-28.426-15.044-34.258-30.774-.2-.556-.4-1.072-.6-1.588,0,0,7.341,11.7,10.994,12.061s-.878-4.219,9.049-8.1c6.333-2.477,15.918-2.249,20.39-1.693,4.13.546,11.545,2.66,14.171,3.033a2.878,2.878,0,0,0,1.514-.134c3.5-1.8,12.027-15.178,13.263-22.728C562.837,160.848,569.165,161.285,571.915,161.766Z" transform="translate(-442.997 -90.157)" fill="#2c1e56"/>
            <path id="Path_794" data-name="Path 794" d="M488.934,172.505s1.077,25.423,42.845,15.253c11.461-2.789,21.577-5.4,27.26-2.328,8.537,26.858,8.815,39.743,11.838,38.686,3.782-1.32-6.468-23.631,6.6-21.224,9.992,1.841-.437,26.466-.437,26.466s12.146,1.593,12.5-4.045c.208-3.37.586-51.487-7.684-62.908s-18.137-10.9-18.137-10.9-10.453-8.81-35.082-1.6-37.594-1.886-37.534-1.176S487.187,156.558,488.934,172.505Z" transform="translate(-460.696 -147.062)" fill="#2c1e56"/>
            <path id="Path_795" data-name="Path 795" d="M659.425,180.037s-2.149,43.466-19.988,71.132v.06s-.174.233-.467.7a2.458,2.458,0,0,0-.471.645c-5.361,8.066-35.087,52.1-54.276,69.584-21.075,19.308-45.327,41.148-45.327,41.148l-.884-.769c-3.062,2.948-6.12,6.125-6.944,7.48-1.653,2.943-3.3,13.833-6.418,15.069a9.457,9.457,0,0,1-1.474.352,9.952,9.952,0,0,1-4.532,2c-3.474.531-8.418-.645-9.773-1a19.626,19.626,0,0,1-4.472,3.47c-4.239,2.179-8.24,5.122-11.774,6.239-3.474,1.122-4.06,0-3.3-2.174.7-2.239,7.356-5.887,9.773-7.773,2.353-1.822,6.413-7.182,7.887-10.418s1.469-5,0-5-6.006,2.765-9.48,3.475c-3.47.764-5.177-.179-3.47-2.179,1.648-2.06,6.532-7.947,12.186-9.421,5.708-1.469,7.356-1.469,11.416-4.591,2.005-1.529,4.477-4.825,6.418-7.768l-1.41-1.236s37.906-52.867,66.283-93.717c.646-.884,1.236-1.648,1.881-2.531,16.072-32.377,17.66-58.044,17.541-68.11a9.787,9.787,0,0,0-4.824-4.651Z" transform="translate(-458.541 -16.364)" fill="#5fb0e7"/>
            <path id="Path_796" data-name="Path 796" d="M526.975,213.164s-6.07,10.488-10.116,13.615-5.7,3.127-11.406,4.6-10.577,7.356-12.235,9.381,0,2.943,3.5,2.209,8-3.494,9.471-3.494,1.474,1.792,0,5.033-5.52,8.582-7.907,10.418-9.014,5.519-9.753,7.728-.183,3.311,3.311,2.2,7.545-4.045,11.774-6.254a20.3,20.3,0,0,0,4.447-3.45c1.38.352,6.314,1.524,9.768,1a10.849,10.849,0,0,0,4.581-2.005,8.968,8.968,0,0,0,1.439-.342c3.127-1.271,4.785-12.121,6.438-15.064s13.7-13.893,13.7-13.893Z" transform="translate(-461.67 114.936)" fill="#ffe1bd"/>
            <path id="Path_797" data-name="Path 797" d="M611.778,265.477v-.035c17.869-27.662,23.934-71.132,23.934-71.132L612.9,178.769l-11.664,5.6c-7.321-3.2-19.854-7.932-19.854-7.932L575.9,194.31a9.929,9.929,0,0,1,4.834,4.651c.119,10.056-1.5,35.737-17.536,68.12-.641.869-1.271,1.633-1.916,2.561-28.337,40.81-66.263,93.667-66.263,93.667l16.221,14.265s24.281-21.84,45.371-41.123c19.145-17.5,48.886-61.553,54.246-69.584.149-.228.3-.457.457-.685Z" transform="translate(-434.828 -30.637)" fill="#6f6f6f"/>
            <path id="Path_798" data-name="Path 798" d="M531.976,190.812c-.238-.055-.412-.114-.65-.174.7.764,1.176,1.355,1.355,1.588.645.7.233,1.176.233,1.176-.883.943-1.648.824-2.764.764a4.347,4.347,0,0,1-2.06-1,3.1,3.1,0,0,1-2.591.586c-1.057-.114-2.353-1.176-4.06-2.884a.854.854,0,0,1,0,.824,3.17,3.17,0,0,1-2.829.764c-1.057-.114-2.531-1.236-4.353-3.177-.591-.591-1.415-1.588-2.3-2.65-.824-.586-1.588-1.117-2.234-1.529a6.13,6.13,0,0,0-3.415-1.117h-.179v-.06c-8.537-.179-12.359-3.887-22.837-3.887h47.5c-.114.06-.174.119-.293.179a20.141,20.141,0,0,1-2.884.526l.233.238c.65.7,1.236,1.415,1.767,2.06,1.886,2.3,4.418,5.3,4.889,5.768.645.765.233,1.236.233,1.236A3.049,3.049,0,0,1,531.976,190.812Z" transform="translate(-481.289 -16.348)" fill="#5fb0e7"/>
            <path id="Path_799" data-name="Path 799" d="M531.572,195.933c-.233-.055-.412-.114-.645-.174.7.764,1.176,1.355,1.355,1.588.645.7.233,1.176.233,1.176-.884.943-1.648.824-2.765.764a4.349,4.349,0,0,1-2.06-1,3.1,3.1,0,0,1-2.591.586c-1.062-.114-2.358-1.176-4.065-2.884a.839.839,0,0,1,0,.824,3.161,3.161,0,0,1-2.824.764c-1.057-.114-2.532-1.236-4.353-3.177-.591-.591-1.415-1.588-2.3-2.651-.824-.586-1.588-1.117-2.239-1.529a6.109,6.109,0,0,0-3.415-1.117h-.174v-.06c-8.537-.179-12.364-3.886-22.842-3.886,0,0,24.49-11.773,39.267-3.415a48.976,48.976,0,0,0,6.239.65c4.3.06,3.062,2.234,1.707,2.943a20.14,20.14,0,0,1-2.884.526l.233.238c.65.7,1.236,1.415,1.767,2.06,1.881,2.3,4.413,5.3,4.884,5.768.65.764.238,1.236.238,1.236A3.055,3.055,0,0,1,531.572,195.933Z" transform="translate(-482.89 -21.469)" fill="#ffe1bd"/>
            <path id="Path_800" data-name="Path 800" d="M498.748,182.947a20.119,20.119,0,0,1-2.884.526,41.07,41.07,0,0,0-5.063-4.12,48.975,48.975,0,0,0,6.239.65C501.339,180.063,500.1,182.237,498.748,182.947Z" transform="translate(-451.535 -19.075)" opacity="0.47" fill="url(#linear-gradient-4)"/>
          </g>
          <g id="Group_713" data-name="Group 713" transform="translate(1744.486 1135.309)">
            <g id="Group_690" data-name="Group 690" transform="translate(57.716 301.397)">
              <path id="Path_801" data-name="Path 801" d="M781.409,391.2c0,5.058-36.447,9.113-81.431,9.113s-81.432-4.055-81.432-9.113c0-3.474,17.382-6.477,42.984-8.006l1.315,4.954a4.745,4.745,0,0,0,4.581,3.529h59.835a4.859,4.859,0,0,0,4.636-3.529l1.37-5.271C761.66,384.3,781.409,387.516,781.409,391.2Z" transform="translate(-618.546 -382.88)" fill="#00a4d6"/>
            </g>
            <path id="Path_802" data-name="Path 802" d="M713.49,422.119S710.7,392.978,672.4,378.678s-65.484,2.68-65.484,2.68,3.752-35.122,34.035-33.529,36.417,21.125,36.417,21.125,16.419-17.1,30.809-4.427c11.943,10.523,10.027,31.409,10.027,31.409s11.332,1.4,9.694,19.447a44.537,44.537,0,0,1-1.008,6.219" transform="translate(-606.918 -220.613)" fill="#61c5f2"/>
            <path id="Path_803" data-name="Path 803" d="M713.49,422.119S710.7,392.978,672.4,378.678s-65.484,2.68-65.484,2.68,3.752-35.122,34.035-33.529,36.417,21.125,36.417,21.125,16.419-17.1,30.809-4.427c11.943,10.523,10.027,31.409,10.027,31.409s11.332,1.4,9.694,19.447a44.537,44.537,0,0,1-1.008,6.219" transform="translate(-606.918 -220.613)" opacity="0.58" fill="url(#linear-gradient-3)"/>
            <g id="Group_697" data-name="Group 697" transform="translate(66.056 54.79)">
              <g id="Group_691" data-name="Group 691" transform="translate(15.217 12.943)">
                <path id="Path_804" data-name="Path 804" d="M669.9,469.308c-.427-91.006-46.136-131.509-46.6-131.911l1.38-1.593c.466.4,46.9,41.465,47.332,133.494Z" transform="translate(-623.292 -335.804)" fill="#39a7d8"/>
              </g>
              <g id="Group_692" data-name="Group 692">
                <path id="Path_805" data-name="Path 805" d="M638.049,348.676s-9.624.963-15.263-3.484a6.719,6.719,0,0,1,8.319-10.553C636.977,339.27,638.049,348.676,638.049,348.676Z" transform="translate(-620.226 -333.196)" fill="#39a7d8"/>
              </g>
              <g id="Group_693" data-name="Group 693" transform="translate(4.139 19.134)">
                <path id="Path_806" data-name="Path 806" d="M638.487,337.09s-.879,9.634-6.313,14.33a6.722,6.722,0,1,1-8.786-10.175C629.046,336.36,638.487,337.09,638.487,337.09Z" transform="translate(-621.06 -337.051)" fill="#39a7d8"/>
              </g>
              <g id="Group_694" data-name="Group 694" transform="translate(21.213 4.208)">
                <path id="Path_807" data-name="Path 807" d="M624.5,349.227s1.559-9.55,7.316-13.848a6.719,6.719,0,0,1,8.036,10.771C633.861,350.622,624.5,349.227,624.5,349.227Z" transform="translate(-624.5 -334.044)" fill="#39a7d8"/>
              </g>
              <g id="Group_695" data-name="Group 695" transform="translate(16.872 37.278)">
                <path id="Path_808" data-name="Path 808" d="M642.057,341.105s-1.995,9.465-7.947,13.491a6.72,6.72,0,1,1-7.529-11.133C632.771,339.274,642.057,341.105,642.057,341.105Z" transform="translate(-623.626 -340.707)" fill="#39a7d8"/>
              </g>
              <g id="Group_696" data-name="Group 696" transform="translate(34.937 24.058)">
                <path id="Path_809" data-name="Path 809" d="M627.265,351.835s2.666-9.3,8.885-12.89a6.718,6.718,0,0,1,6.721,11.635C636.4,354.322,627.265,351.835,627.265,351.835Z" transform="translate(-627.265 -338.043)" fill="#39a7d8"/>
              </g>
            </g>
            <g id="Group_712" data-name="Group 712" transform="translate(112.648)">
              <g id="Group_698" data-name="Group 698" transform="translate(26 18.411)">
                <path id="Path_810" data-name="Path 810" d="M638.984,508.446C628.451,387.693,684.142,328.4,684.708,327.813l-2.025-1.946c-.571.586-57.14,60.714-46.5,182.827Z" transform="translate(-634.852 -325.867)" fill="#258baf"/>
              </g>
              <g id="Group_699" data-name="Group 699" transform="translate(72.516)">
                <path id="Path_811" data-name="Path 811" d="M644.223,344.078s12.885.1,19.819-6.477a8.951,8.951,0,0,0-12.325-12.985C644.5,331.47,644.223,344.078,644.223,344.078Z" transform="translate(-644.223 -322.158)" fill="#258baf"/>
              </g>
              <g id="Group_700" data-name="Group 700" transform="translate(68.004 26.897)">
                <path id="Path_812" data-name="Path 812" d="M643.314,327.955s2.337,12.672,10.121,18.236a8.95,8.95,0,0,0,10.408-14.563C655.743,325.836,643.314,327.955,643.314,327.955Z" transform="translate(-643.314 -327.577)" fill="#258baf"/>
              </g>
              <g id="Group_701" data-name="Group 701" transform="translate(43.482 8.734)">
                <path id="Path_813" data-name="Path 813" d="M663.388,342.7S660.156,330.229,652,325.236A8.949,8.949,0,1,0,642.65,340.5C651.138,345.7,663.388,342.7,663.388,342.7Z" transform="translate(-638.373 -323.917)" fill="#258baf"/>
              </g>
              <g id="Group_702" data-name="Group 702" transform="translate(52.032 52.224)">
                <path id="Path_814" data-name="Path 814" d="M640.1,333.949s3.807,12.314,12.186,16.926a8.951,8.951,0,0,0,8.631-15.685C652.192,330.39,640.1,333.949,640.1,333.949Z" transform="translate(-640.096 -332.679)" fill="#258baf"/>
              </g>
              <g id="Group_703" data-name="Group 703" transform="translate(26.489 36.84)">
                <path id="Path_815" data-name="Path 815" d="M661.009,346.422s-4.671-12.012-13.357-16.017a8.95,8.95,0,1,0-7.495,16.255C649.2,350.829,661.009,346.422,661.009,346.422Z" transform="translate(-634.95 -329.58)" fill="#258baf"/>
              </g>
              <g id="Group_704" data-name="Group 704" transform="translate(40.432 80.573)">
                <path id="Path_816" data-name="Path 816" d="M637.759,340.655s4.9,11.918,13.66,15.759a8.952,8.952,0,0,0,7.182-16.4C649.483,336.019,637.759,340.655,637.759,340.655Z" transform="translate(-637.759 -338.391)" fill="#258baf"/>
              </g>
              <g id="Group_705" data-name="Group 705" transform="translate(14.264 67.704)">
                <path id="Path_817" data-name="Path 817" d="M659.186,351.07s-5.733-11.545-14.746-14.751a8.951,8.951,0,0,0-6,16.866C647.814,356.525,659.186,351.07,659.186,351.07Z" transform="translate(-632.487 -335.798)" fill="#258baf"/>
              </g>
              <g id="Group_706" data-name="Group 706" transform="translate(32.411 106.699)">
                <path id="Path_818" data-name="Path 818" d="M636.143,348.3s6.82,10.935,16.1,13.258a8.949,8.949,0,0,0,4.348-17.362C646.934,341.771,636.143,348.3,636.143,348.3Z" transform="translate(-636.143 -343.654)" fill="#258baf"/>
              </g>
              <g id="Group_707" data-name="Group 707" transform="translate(5.455 99.169)">
                <path id="Path_819" data-name="Path 819" d="M658.214,354.361s-7.579-10.428-17-12.086a8.951,8.951,0,0,0-3.1,17.631C647.914,361.633,658.214,354.361,658.214,354.361Z" transform="translate(-630.712 -342.137)" fill="#258baf"/>
              </g>
              <g id="Group_708" data-name="Group 708" transform="translate(28.45 134.609)">
                <path id="Path_820" data-name="Path 820" d="M635.345,355.495s7.823,10.245,17.278,11.679a8.952,8.952,0,0,0,2.69-17.7C645.471,347.98,635.345,355.495,635.345,355.495Z" transform="translate(-635.345 -349.277)" fill="#258baf"/>
              </g>
              <g id="Group_709" data-name="Group 709" transform="translate(1.271 130.375)">
                <path id="Path_821" data-name="Path 821" d="M657.6,358.876s-8.532-9.659-18.068-10.424a8.95,8.95,0,0,0-1.424,17.844C648.035,367.091,657.6,358.876,657.6,358.876Z" transform="translate(-629.869 -348.424)" fill="#258baf"/>
              </g>
              <g id="Group_710" data-name="Group 710" transform="translate(27.179 170.248)">
                <path id="Path_822" data-name="Path 822" d="M635.089,362.675s7.823,10.24,17.278,11.679a8.951,8.951,0,0,0,2.685-17.7C645.21,355.16,635.089,362.675,635.089,362.675Z" transform="translate(-635.089 -356.457)" fill="#258baf"/>
              </g>
              <g id="Group_711" data-name="Group 711" transform="translate(0 166.013)">
                <path id="Path_823" data-name="Path 823" d="M657.338,366.052s-8.527-9.659-18.062-10.419a8.95,8.95,0,0,0-1.424,17.844C647.774,374.266,657.338,366.052,657.338,366.052Z" transform="translate(-629.613 -355.604)" fill="#258baf"/>
              </g>
            </g>
            <path id="Path_824" data-name="Path 824" d="M640.665,476.925s-16.781-53.825,17.9-62.163c0,0,1.752-72.21,53.109-53.894,0,0,7.46-28.188,37.311-26.872s28.471,29.96,28.471,29.96,27.275,4.279,27.275,27.106c0,0-133.549-37.643-145.025,85.864" transform="translate(-489.248 -275.419)" fill="#61c5f2"/>
            <path id="Path_825" data-name="Path 825" d="M640.665,476.925s-16.781-53.825,17.9-62.163c0,0,1.752-72.21,53.109-53.894,0,0,7.46-28.188,37.311-26.872s28.471,29.96,28.471,29.96,27.275,4.279,27.275,27.106c0,0-133.549-37.643-145.025,85.864" transform="translate(-489.248 -275.419)" opacity="0.58" fill="url(#linear-gradient-3)"/>
            <path id="Path_826" data-name="Path 826" d="M622.723,374.32l24.788,93.8a4.754,4.754,0,0,0,4.6,3.539h59.865a4.758,4.758,0,0,0,4.6-3.539l24.788-93.8a9.258,9.258,0,0,0-8.95-11.62H631.667A9.252,9.252,0,0,0,622.723,374.32Z" transform="translate(-545.515 -161.467)" fill="none" stroke="#00bfd8" stroke-miterlimit="10" stroke-width="0.531"/>
            <line id="Line_2" data-name="Line 2" x1="16.625" y2="87.962" transform="translate(154.939 212.645)" fill="none" stroke="#00bfd8" stroke-linecap="round" stroke-miterlimit="10" stroke-width="0.531"/>
          </g>
        </g>
      </g>
    </g>
  </g>
</svg>
