<svg xmlns="http://www.w3.org/2000/svg" width="50" height="58" viewBox="0 0 50 58">
  <g id="baseline-phone_iphone-24px" transform="translate(0)">
    <path id="Path_298" data-name="Path 298" d="M30.451,1H11.06A6.052,6.052,0,0,0,5,7.04V48.112a6.052,6.052,0,0,0,6.06,6.04H30.451a6.052,6.052,0,0,0,6.06-6.04V7.04A6.052,6.052,0,0,0,30.451,1Zm-9.7,50.736a3.624,3.624,0,1,1,3.636-3.624A3.625,3.625,0,0,1,20.755,51.736Zm10.907-9.664H9.848V8.248H31.662Z" transform="translate(4.404 1.424)" fill="#535353"/>
    <path id="Path_299" data-name="Path 299" d="M0,0H50V58H0Z" fill="none"/>
  </g>
</svg>
